<?xml version="1.0" encoding="UTF-8"?>
<svg viewBox="-7.301836143134642 -50.68103981633975 102.9828759594744 101.3620796326795" height="101.3620796326795mm" width="102.9828759594744mm" xmlns:svgjs="http://svgjs.com/svgjs" xmlns:xlink="http://www.w3.org/1999/xlink" version="1.1" xmlns="http://www.w3.org/2000/svg" id="SvgjsSvg1049">
  <defs id="SvgjsDefs1050">
  </defs>
  <defs id="SvgjsDefs1050">
  </defs>
  <g id="SvgjsG1051">
    <g transform="matrix(1,0,0,1,45,0)" id="SvgjsG1052">
      <g fill="none" stroke-width="0.04" stroke="blue" id="SvgjsG1053">
      </g>
      <g fill="none" stroke-width="0.1" stroke="black" id="SvgjsG1054">
        <circle cy="0" cx="0" r="2" id="SvgjsCircle1055">
        </circle>
        <path d="M-45.533539259336905 4.271835111450853  L-45.21763245450477 4.109803866745549 L-44.91493330280182 3.9624597183774797 L-44.62546977517974 3.8289725954907157 L-44.35048261698094 3.709088429206137 L-44.089182074732285 3.6016292596552963 L-43.88143209882022 3.520259140394372 L-43.839188962145776 3.4968954954753015 L-43.82565023921512 3.4852226474335053 L-43.81716246846829 3.473712532414568 L-43.81371937182264 3.462454931183012 L-43.81769089991199 3.409673397815408 L-43.84294000891928 3.0657970210543137 L-43.86579496420594 2.721753228756233 L-43.86920785642714 2.6689326317633326 L-43.87418420036568 2.658263775170177 L-43.884191267110666 2.648046945174456 L-43.89922277857945 2.6383719225406916 L-43.94430639886475 2.6211147593331816 L-44.161359098115334 2.569449736851457 L-44.43507210730202 2.499402359299064 L-44.724067760558114 2.4189557130104644 L-45.02929206585794 2.327053214381524 L-45.34955171226124 2.2232705887371855 L-45.684934524562735 2.106781950609946 L-45.956202016829046 2.006841708310086 A46 46 0 0 1 -45.98424521940104 1.20378945659451 L-45.72061 1.0851700000000029 L-45.39417 0.9455700000000028 L-45.08193 0.8197000000000028 L-44.78386 0.7067300000000027 L-44.50118 0.6063200000000027 L-44.23302 0.5173500000000026 L-44.0201 0.45067000000000274 L-43.97633 0.43031000000000275 L-43.96201 0.41961000000000265 L-43.95274 0.4087200000000027 L-43.94852 0.39773000000000264 L-43.9488 0.34480000000000266 L-43.95 2.6911613411263087e-15 L-43.9488 -0.34479999999999733 L-43.94852 -0.3977299999999973 L-43.95274 -0.40871999999999736 L-43.96201 -0.4196099999999973 L-43.97633 -0.4303099999999973 L-44.0201 -0.4506699999999973 L-44.23302 -0.5173499999999973 L-44.50118 -0.6063199999999972 L-44.78386 -0.7067299999999972 L-45.08193 -0.8196999999999972 L-45.39417 -0.9455699999999972 L-45.72061 -1.085169999999997 L-45.98424521940104 -1.2037894565945042 A46 46 0 0 1 -45.95620201682905 -2.00684170831007 L-45.68493452456274 -2.10678195060993 L-45.349551712261245 -2.22327058873717 L-45.02929206585794 -2.327053214381508 L-44.72406776055812 -2.418955713010449 L-44.43507210730203 -2.4994023592990486 L-44.16135909811534 -2.569449736851441 L-43.944306398864754 -2.6211147593331665 L-43.89922277857946 -2.638371922540676 L-43.88419126711067 -2.648046945174441 L-43.87418420036568 -2.658263775170162 L-43.869207856427145 -2.6689326317633175 L-43.86579496420594 -2.721753228756218 L-43.84294000891928 -3.0657970210542986 L-43.81769089991199 -3.409673397815393 L-43.81371937182265 -3.462454931182997 L-43.81716246846829 -3.473712532414553 L-43.82565023921513 -3.48522264743349 L-43.83918896214578 -3.496895495475286 L-43.88143209882023 -3.520259140394357 L-44.08918207473229 -3.6016292596552812 L-44.35048261698095 -3.709088429206122 L-44.625469775179745 -3.8289725954907 L-44.91493330280182 -3.9624597183774637 L-45.21763245450478 -4.109803866745534 L-45.53353925933691 -4.271835111450837 L-45.78825780158428 -4.408555880271049 A46 46 0 0 1 -45.70426481753234 -5.207695742138797 L-45.42668664035536 -5.288469871329484 L-45.08399496710134 -5.3812796266484035 L-44.75727594709963 -5.462469259417134 L-44.44638435863437 -5.5328565169397015 L-44.1524810098951 -5.592947881542652 L-43.87454849378895 -5.643731372865139 L-43.65442055422047 -5.680129711032409 L-43.60824295651611 -5.694199962282965 L-43.59257316559145 -5.702802871812753 L-43.58187778552476 -5.712296756435448 L-43.57616934189513 -5.722592492024867 L-43.569080184720555 -5.775046349371626 L-43.52228162119202 -6.116657787194873 L-43.47310641429849 -6.457935209575814 L-43.465462707005436 -6.510311129986037 L-43.46811212587597 -6.521781486547557 L-43.47577631580375 -6.533855640462053 L-43.48846780236785 -6.546444467603336 L-43.52897827140112 -6.572697932111936 L-43.73054608622557 -6.668361743592042 L-43.98371414074688 -6.793786552421429 L-44.24966874735136 -6.932560821383162 L-44.529115565385695 -7.085914731312064 L-44.82079914895173 -7.254015182168336 L-45.124633692417696 -7.437688271642063 L-45.36919459437777 -7.59184426284541 A46 46 0 0 1 -45.22966103422126 -8.38317840578756 L-44.94712450511075 -8.444392898431042 L-44.59879353028905 -8.513071611142932 L-44.267206878912695 -8.57127270330636 L-43.952162639850286 -8.619801800079207 L-43.65478346319984 -8.659245123908525 L-43.37398549945501 -8.690517316936122 L-43.15185476076304 -8.711471641744135 L-43.10480815825387 -8.72228643218798 L-43.08857642951961 -8.729775316103321 L-43.077244842947806 -8.738500002101432 L-43.07083211059062 -8.748372456898247 L-43.06010122612384 -8.800204024678514 L-42.98958705225076 -9.137718811440514 L-42.91672532413592 -9.474734610144548 L-42.905446677012726 -9.526449747377962 L-42.90728951040573 -9.538076976845275 L-42.91409278035153 -9.550656345591147 L-42.92587519890228 -9.564099820331508 L-42.96445563736136 -9.593115200189542 L-43.15885927296588 -9.702606639415391 L-43.40266143044659 -9.845386030462366 L-43.65828778134701 -10.002374307812412 L-43.92635645298606 -10.174847879949361 L-44.205603415315956 -10.362885664794662 L-44.49588544606134 -10.567305762207651 L-44.72909723160294 -10.738145943300696 A46 46 0 0 1 -44.534702888821066 -11.517819066917479 L-44.2485844973464 -11.55917569215886 L-43.896311254452236 -11.603388766478949 L-43.56147242853577 -11.638317768166402 L-43.243810402740785 -11.664752275308183 L-42.94440419963536 -11.683355394455 L-42.66210880770551 -11.694963934206747 L-42.43905746852044 -11.700372158291357 L-42.39137106752478 -11.707878799356552 L-42.37465648033171 -11.714217172567793 L-42.362743893605504 -11.722130154148136 L-42.35565811470822 -11.731531230544952 L-42.341337782739686 -11.782487990570596 L-42.247451536489116 -12.114261788157108 L-42.151258262168284 -12.44537405608966 L-42.136399623650036 -12.496176459196047 L-42.13742689346646 -12.507903914875957 L-42.143336098582964 -12.520927213033147 L-42.15415204636155 -12.535159840114988 L-42.19061449422835 -12.566795775308401 L-42.37690683564166 -12.689581410994126 L-42.61015531647743 -12.849019777417643 L-42.85420802578769 -13.023457232049159 L-43.109592547409385 -13.214210192487684 L-43.37504242537248 -13.421269210135742 L-43.65035771852253 -13.645440401321629 L-43.871084203268886 -13.832132456114884 A46 46 0 0 1 -43.62277614755922 -14.596346071320504 L-43.33446983376313 -14.617643343838758 L-42.97997056262552 -14.637175378113241 L-42.64351086327092 -14.648662118739555 L-42.32477866820176 -14.652873249988657 L-42.02480411556667 -14.650545531926468 L-41.74238661022504 -14.642433862763582 L-41.51950135425035 -14.632269637800684 L-41.47140747812043 -14.63643155788652 L-41.454291464257196 -14.641588540476507 L-41.4418559143017 -14.648651266388235 L-41.434131610066835 -14.65753516328584 L-41.41629159781442 -14.707368859344168 L-41.299490683540675 -15.031785299163142 L-41.180434506977036 -15.35538089063813 L-41.162068266857 -15.405023055416198 L-41.16227496834156 -15.41679360232347 L-41.16726131957543 -15.430197381692457 L-41.1770581023715 -15.445149821187288 L-41.21122491826519 -15.479252184619854 L-41.388498367925976 -15.614733817490762 L-41.61005680896423 -15.790054391596293 L-41.841346876416665 -15.981091181764706 L-42.08280304030282 -16.189194201255972 L-42.33316258877661 -16.414265680986304 L-42.5921698358977 -16.657095826435246 L-42.79933566260246 -16.858730210003976 A46 46 0 0 1 -42.4983236258526 -17.603761144883617 L-42.20923398911544 -17.60489530650783 L-41.85423577454922 -17.599651142629078 L-41.51779439959093 -17.58763965994856 L-41.19954486646313 -17.569606899096843 L-40.90046341016548 -17.54635968423407 L-40.61929970110959 -17.518567325393324 L-40.39766640290803 -17.492880170465234 L-40.34939936017398 -17.49367709311541 L-40.33196530713964 -17.49762756078334 L-40.31906737870419 -17.503805622135758 L-40.310742181165544 -17.512129058081467 L-40.289469403375676 -17.56059690541455 L-40.15032286339232 -17.87607546318141 L-40.00898381431061 -18.19057785300489 L-39.98719945106446 -18.238817927817852 L-39.98658457718831 -18.250574221031123 L-39.990623781537565 -18.264293179746165 L-39.999353670410095 -18.27989258487178 L-40.031058397038095 -18.316295233256817 L-40.198449296519065 -18.463812810416126 L-40.407238287306036 -18.654161447989793 L-40.62463889094121 -18.86086686165635 L-40.85099034693247 -19.085306083207843 L-41.08503983936284 -19.327293499395303 L-41.32647718318231 -19.587599555047877 L-41.51907306076202 -19.803193924943553 A46 46 0 0 1 -41.166823543357374 -20.525412463672744 L-40.87835899933016 -20.506377988881493 L-40.52459135695238 -20.476383175888774 L-40.189807414950245 -20.440931988637658 L-39.87359102349886 -20.400743189483343 L-39.57685975833017 -20.35668973591399 L-39.29831964688806 -20.309352088973988 L-39.07901808160997 -20.268267149317445 L-39.030813024452215 -20.265695192004916 L-39.01314586920067 -20.268419898469414 L-38.99984839969613 -20.27368319636862 L-38.99096286837925 -20.281405620419186 L-38.96636096388699 -20.328271488546786 L-38.80554670614985 -20.63327518443989 L-38.64261337418984 -20.937152148582303 L-38.617517019045586 -20.983755112634746 L-38.61608356541243 -20.995439876675224 L-38.6191559442795 -21.009407177348482 L-38.62677640808742 -21.025577549371167 L-38.65586458320854 -21.06410313266491 L-38.8125574208735 -21.22293796330512 L-39.00755976243349 -21.42738730491844 L-39.21001174836351 -21.64875429408572 L-39.42015573491906 -21.888436272370583 L-39.636754905705466 -22.146160686648006 L-39.859446087753426 -22.42267446756694 L-40.036533708452176 -22.651178469690898 A46 46 0 0 1 -39.63476283463354 -23.347066036146114 L-39.3483287535784 -23.307955658987236 L-38.99751520378214 -23.253356328594386 L-38.66601972844923 -23.19463815139342 L-38.353377053147454 -23.13248910972622 L-38.0604416240043 -23.067844041447845 L-37.78588212960017 -23.001191730666108 L-37.569980712427466 -22.944909167977283 L-37.52207249103891 -22.938980861019537 L-37.50425830617466 -22.940466531784594 L-37.49062607953579 -22.944789423972292 L-37.48122350385609 -22.951873213253993 L-37.45341233066714 -22.996908776377534 L-37.27171382607493 -23.28995166304935 L-37.08798000605193 -23.581722743487003 L-37.059693925929146 -23.626461551822583 L-37.057448876181 -23.638017859694404 L-37.05953946124487 -23.652165455040986 L-37.06601337385453 -23.668828013533684 L-37.09234328280351 -23.709288838966916 L-37.23757466689807 -23.878667095759162 L-37.41784032742454 -24.09622108477097 L-37.60435736992439 -24.33117117171948 L-37.79727008666531 -24.584928200232262 L-37.99536368642016 -24.85713400515965 L-38.19822377764251 -25.148508363999373 L-38.358940388373036 -25.388808749822413 A46 46 0 0 1 -37.90960554545179 -26.054975049730245 L-37.62659740541939 -25.995979312029903 L-37.2804470765556 -25.917041466686292 L-36.95385508052591 -25.835342368592464 L-36.646309285061086 -25.751535868296184 L-36.358596843908494 -25.666614129583337 L-36.08935559280045 -25.580971878318127 L-35.87790617373527 -25.509765895584934 L-35.83052819215481 -25.500510121097566 L-35.81265376659583 -25.50074951812455 L-35.79875319766051 -25.504110943904543 L-35.78887938602155 -25.51052158690805 L-35.757994437376134 -25.553507436290953 L-35.55629690277894 -25.833161838254192 L-35.35265772739525 -26.11140555561192 L-35.32131972923298 -26.154062245253545 L-35.31827402102655 -26.1654337957864 L-35.31937262716694 -26.179692760143894 L-35.324668448326854 -26.19676632679653 L-35.34811181443398 -26.238965273294852 L-35.48117419225343 -26.418061762397887 L-35.64582493556855 -26.64766049764217 L-35.815498342355774 -26.895049029165396 L-35.990239937917636 -27.161644829170754 L-36.16886287453522 -27.44700586542853 L-36.35090356095894 -27.751821255601627 L-36.49446616654895 -28.002747305798927 A46 46 0 0 1 -35.99975646871284 -28.635946843909032 L-35.72155305691352 -28.55735316697107 L-35.38175235858952 -28.454461383924404 L-35.0616549652388 -28.350179394731263 L-34.76070438181204 -28.245123732651145 L-34.47961663474254 -28.14033905367853 L-34.21700534324195 -28.03612410236929 L-34.01103808259916 -27.950341607982 L-33.96442116159062 -27.93780345916792 L-33.94657357774151 -27.936795416138587 L-33.93247238868431 -27.939178998982356 L-33.9221754453039 -27.94488526369936 L-33.888367189567255 -27.985611976604357 L-33.66765327507908 -28.25051544572341 L-33.44510085392742 -28.513876224579203 L-33.410863613302645 -28.55424297642278 L-33.407032085022145 -28.565374368565536 L-33.40713335994037 -28.579675233692896 L-33.41122528894219 -28.597076627804977 L-33.43166789848429 -28.640808106342863 L-33.551913003499294 -28.828750287664494 L-33.700146667732255 -29.069275187182328 L-33.85214980702451 -29.327896911222098 L-34.00786895791869 -29.606032654780513 L-34.16615099840692 -29.90315867208443 L-34.326485396106435 -30.21993006364991 L-34.452194573972356 -30.480259291727904 A46 46 0 0 1 -33.91452019714117 -31.0774071835396 L-33.642476892632324 -30.979598467857848 L-33.3106812996937 -30.85325402553249 L-32.99863799134628 -30.726897196608995 L-32.705748820948585 -30.601104193370535 L-32.43265519921107 -30.47696707456119 L-32.177953283132524 -30.35468714797504 L-31.97847163270221 -30.25474606562349 L-31.93284288521884 -30.238986627083392 L-31.91510909471408 -30.236736055082044 L-31.900875985110645 -30.238130182413578 L-31.890206075661872 -30.243104268495966 L-31.85363922325757 -30.281373428471614 L-31.614984224883717 -30.530235381672938 L-31.374602810989042 -30.777430154785147 L-31.33763312829656 -30.815310306073346 L-31.33303444676264 -30.826147308802405 L-31.332137897057482 -30.84042040232225 L-31.33500599843442 -30.858064846050844 L-31.3523482570727 -30.90311580126073 L-31.459190267218602 -31.098988039385443 L-31.590284672857674 -31.34926729004385 L-31.723877000639614 -31.617862227557207 L-31.8598150588158 -31.90618286528418 L-31.99698506898387 -32.21362629554493 L-32.13483204489034 -32.540810410124834 L-32.242075352553854 -32.80927451825253 A46 46 0 0 1 -31.664055792244703 -33.367461519261994 L-31.399497962660185 -33.25091427906755 L-31.07732394988376 -33.10173271488641 L-30.774854970171425 -32.95391664400174 L-30.49145413939986 -32.80799915047205 L-30.227685127668153 -32.665114375390594 L-29.98213346914424 -32.52536520903832 L-29.790109283475477 -32.41175244162969 L-29.74569100818843 -32.392848491764006 L-29.72815740827276 -32.38936635535121 L-29.713861720402367 -32.389764235122286 L-29.702870827611537 -32.39398190932265 L-29.6637235285688 -32.42960707286836 L-29.408290149471828 -32.66121507973147 L-29.151250856919585 -32.89103953901343 L-29.11172884473729 -32.92624854145687 L-29.10638541426413 -32.93673835798427 L-29.104495407835625 -32.95091414281969 L-29.106125708486076 -32.96871567420856 L-29.12028312647968 -33.014866622365176 L-29.213201518222778 -33.21771464743784 L-29.326517986501244 -33.476528913885595 L-29.441048654380584 -33.75378849733604 L-29.556543343283785 -34.05088936006645 L-29.67193304463044 -34.3671523697959 L-29.78662102213358 -34.70315519927244 L-29.8748759809798 -34.97844625730096 A46 46 0 0 1 -29.25932729038816 -35.49495293654807 L-29.00354383488046 -35.360234978279884 L-28.692561001671653 -35.188943089827966 L-28.401139949059488 -35.020387922021044 L-28.128608158274215 -34.85505683356102 L-27.875448812659506 -34.69412052246892 L-27.64024371468779 -34.53758296024148 L-27.456612516310955 -34.410852017758245 L-27.413621114592516 -34.38889565471051 L-27.396373127202263 -34.38419891850484 L-27.38208450821922 -34.383598612285205 L-27.370826178611207 -34.38703932651882 L-27.329289154635894 -34.41984693141881 L-27.058321840562687 -34.63307262101543 L-26.785876938948697 -34.844407084803386 L-26.743995144547203 -34.87677340368137 L-26.73793299779094 -34.886864928675415 L-26.73505874256043 -34.90087434182764 L-26.7354432998235 -34.918746233605276 L-26.746346903655073 -34.96577233192828 L-26.82488898793092 -35.17460788876093 L-26.919875452405854 -35.44069625390783 L-27.01478647848126 -35.72526970247483 L-27.109275119596628 -36.029703344669926 L-27.202322345095833 -36.353245132275326 L-27.293292575897645 -36.69642970463817 L-27.362129216638433 -36.97720652220496 A46 46 0 0 1 -26.71205028711016 -37.44951651106744 L-26.466287356963235 -37.2972841670764 L-26.16801078042556 -37.10471647121605 L-25.88905742898835 -36.91624339032133 L-25.62872242567928 -36.73230418337493 L-25.387406113065918 -36.55410040180257 L-25.163693471240983 -36.38153707896801 L-24.98934989289602 -36.242305381823016 L-24.947994814533885 -36.21740357478694 L-24.931116470129847 -36.21151512081509 L-24.916904532749548 -36.209919553236304 L-24.905433615774523 -36.212566544689274 L-24.861709231072155 -36.242396755590285 L-24.576528107539342 -36.43620131379407 L-24.290004921038197 -36.62801618182372 L-24.24596738830989 -36.65738213168411 L-24.239216059440153 -36.66702620024944 L-24.235371558490204 -36.68080098926582 L-24.234508498841564 -36.69865617137194 L-24.24210516724926 -36.746328313437346 L-24.305888294918283 -36.9601339761892 L-24.382081991082774 -37.23220008426733 L-24.45691097837563 -37.522700984714696 L-24.529933232541616 -37.83298423627127 L-24.60018466546382 -38.162228538685724 L-24.666993951744125 -38.5109228931951 L-24.716076909185233 -38.79581755386856 A46 46 0 0 1 -24.03463485991924 -39.221629805557164 L-23.800089787424774 -39.05262473652083 L-23.515972641056468 -38.839719403709445 L-23.25084602348212 -38.632246631631794 L-23.00397613361659 -38.43059543952576 L-22.775678522822595 -38.235992378383976 L-22.564548242647895 -38.04824400610515 L-22.400341668723545 -37.89718987713136 L-22.360824391502494 -37.86946394520771 L-22.344397919682002 -37.86241246142552 L-22.33033190303479 -37.85982940593244 L-22.3187042838472 -37.861669778728476 L-22.273005559224888 -37.88837726584153 L-21.975000000000016 -38.061816496326074 L-21.67579444077514 -38.23317726584153 L-21.62981571615283 -38.25939977872847 L-21.622408096965238 -38.26854940593244 L-21.617612080318025 -38.28202246142553 L-21.615505608497532 -38.29977394520772 L-21.619758331276483 -38.34785987713136 L-21.668471757352137 -38.565594006105144 L-21.72550147717743 -38.84231237838397 L-21.779883866383436 -39.13732543952577 L-21.83108397651791 -39.45194663163179 L-21.878197358943563 -39.78528940370945 L-21.920520212575255 -40.13779473652084 L-21.949610359481827 -40.42541926215167 A46 46 0 0 1 -21.24012510764385 -40.80265926217864 L-21.017940572818638 -40.61770484380504 L-20.74936704679745 -40.385499127422904 L-20.49935883331635 -40.16003745065279 L-20.267156782182514 -39.94165669772515 L-20.052990116219277 -39.7316024435664 L-19.855470803197083 -39.529583713040644 L-19.702201231615526 -39.36744307277052 L-19.664714279737915 -39.33702809391263 L-19.648819708620493 -39.32884793444027 L-19.634968140925558 -39.32528997541961 L-19.623240468117285 -39.32631476344744 L-19.575790043167768 -39.349769410579945 L-19.266411901379964 -39.50199833484839 L-18.955981668839865 -39.652070153405695 L-18.908285756048148 -39.675021475872285 L-18.90025793571877 -39.68363208565087 L-18.894533769085307 -39.6967377682486 L-18.891194147611927 -39.71429907026225 L-18.892082205924233 -39.76256452221738 L-18.925488603491335 -39.9831663386233 L-18.963076503915055 -40.263188831008705 L-18.99674734950049 -40.56127677886565 L-19.025875873813497 -40.87870310869881 L-19.049621674079244 -41.2145203379616 L-19.067251902373705 -41.56911927852725 L-19.07620751447414 -41.85807239133852 A46 46 0 0 1 -18.342135600893926 -42.184902264343755 L-18.133394064457732 -41.98489957596766 L-17.881672622005517 -41.73452475892374 L-17.64800082750301 -41.49217260408707 L-17.43159788015312 -41.258126219414535 L-17.232605557489258 -41.03364413545049 L-17.049659505858045 -40.81833926162607 L-16.908073650565413 -40.645902042960685 L-16.872799656692614 -40.61294619588824 L-16.857514423031038 -40.603677213640395 L-16.843944787733836 -40.59916168511086 L-16.83217419734794 -40.599365895706235 L-16.78320324577187 -40.619453434175014 L-16.463959780629345 -40.749730408210304 L-16.143817259662615 -40.877782140994626 L-16.09463652839424 -40.89735045650486 L-16.086027617656764 -40.905380098832765 L-16.0794031886015 -40.9180545589669 L-16.07484668777535 -40.935340122313846 L-16.072365755090182 -40.98354994987018 L-16.09030237153779 -41.20594470383352 L-16.10826532808739 -41.48790707489036 L-16.121060589077146 -41.787617654944185 L-16.127975616326218 -42.10630265333311 L-16.128238147280086 -42.442958271996304 L-16.12108985753725 -42.79792324992195 L-16.109867303989617 -43.08679719939348 A46 46 0 0 1 -15.354785053241464 -43.361624663088534 L-15.160503482977182 -43.1475480977035 L-14.92686048565862 -42.88022398093886 L-14.710663535628916 -42.622162063372826 L-14.51111398546971 -42.37359029741527 L-14.328265476698602 -42.13577403779414 L-14.160783981232239 -41.90823196437398 L-14.031571634283363 -41.72633826410933 L-13.998682449767802 -41.69100210639656 L-13.984081021683995 -41.680689458923034 L-13.970859428683685 -41.675238360085714 L-13.95910326585334 -41.67462099835514 L-13.908850369204261 -41.69124356369196 L-13.581296902778943 -41.798933891172 L-13.253001795567124 -41.90434168301292 L-13.202575849401196 -41.92043165670063 L-13.193427790003376 -41.927841211967575 L-13.185935372078777 -41.94002270094237 L-13.180184190713867 -41.95694831209553 L-13.174346353885891 -42.004867641819246 L-13.176725803821643 -42.227971848453734 L-13.174976302778449 -42.51050040585297 L-13.16683364194716 -42.81037345828448 L-13.15150148281464 -43.12876452395112 L-13.128279465432202 -43.46461837968109 L-13.096387483401157 -43.81822004127522 L-13.06504143935825 -44.1056074625627 A46 46 0 0 1 -12.292627536267211 -44.32709358517001 L-12.113752452456048 -44.099986102283694 L-11.899326185468365 -43.81701506202388 L-11.701657369719962 -43.54450063345059 L-11.51993340210117 -43.28261450286539 L-11.354119526777684 -43.032622684498854 L-11.202918540486902 -42.79395197359219 L-11.086709211447737 -42.60348795955209 L-11.05636506909036 -42.565943645407394 L-11.04251858327422 -42.55463757489004 L-11.029709446842865 -42.548277462950544 L-11.018024986411662 -42.5468415366183 L-10.96673497175064 -42.559918145355745 L-10.632467311605398 -42.644497169830046 L-10.297619038910714 -42.72674748456128 L-10.246193547988158 -42.73928072769202 L-10.236550908355813 -42.74603409728953 L-10.228227003868877 -42.757663268115195 L-10.221309161142711 -42.774146467198385 L-10.212142861526129 -42.82154184093189 L-10.198953552509128 -43.04426855896917 L-10.177500117266359 -43.32598685197883 L-10.1484592048391 -43.62456142541969 L-10.110954556063094 -43.94110738909668 L-10.064361125678776 -44.274523235668234 L-10.0078808258902 -44.62503886917948 L-9.956564006127703 -44.90953963965449 A46 46 0 0 1 -9.170581573586865 -45.0766053630484 L-9.007984437656686 -44.83757340748867 L-8.81381956421859 -44.540334050197664 L-8.635641905352221 -44.254694773520065 L-8.472628861177249 -43.98077016121075 L-8.324657447834406 -43.719820719108796 L-8.190473606725748 -43.47118415042807 L-8.087833455766049 -43.27307774414354 L-8.060182189178239 -43.23350818569149 L-8.047158104316818 -43.221263774169394 L-8.034823829279542 -43.21402563495377 L-8.023267996764185 -43.21177813970861 L-7.971190743886995 -43.22124508392337 L-7.631837408461586 -43.28230074488655 L-7.292067317409776 -43.340992867242484 L-7.239892821553093 -43.349908319115556 L-7.2298025796572425 -43.35597260130582 L-7.220687741833913 -43.36699279783104 L-7.212636940780872 -43.38295328035521 L-7.200186835666026 -43.42959379260186 L-7.171493024684016 -43.650857919860044 L-7.130440174221682 -43.93039344527482 L-7.080642494604614 -44.226214914415856 L-7.021148075064007 -44.539373595987236 L-6.951410230187083 -44.86872706491071 L-6.8706167789841714 -45.214448993406315 L-6.799579193889618 -45.49467705391301 A46 46 0 0 1 -6.003857459303656 -45.60650845068255 L-5.858330428156512 -45.35671656210947 L-5.685372900014007 -45.04665700805762 L-5.5275544616733105 -44.749284489119326 L-5.384046524107367 -44.464655928262246 L-5.254638474596939 -44.19402018187625 L-5.13812550885617 -43.936629087791225 L-5.049554588474064 -43.73184544376009 L-5.02473091184714 -43.69044341991195 L-5.012592679972707 -43.677320320927244 L-5.000793357677655 -43.669239417922164 L-4.989422451932569 -43.66619130333502 L-4.936811675980441 -43.67200246102648 L-4.594025960613382 -43.709237301435614 L-4.25098937693448 -43.74408528929585 L-4.198320065042923 -43.74933951472591 L-4.187831379527814 -43.75468516493567 L-4.177970014941746 -43.76504269787072 L-4.168825478255297 -43.78040270596936 L-4.153152223302825 -43.82606112884176 L-4.109093703718617 -44.04478468873426 L-4.048641443397556 -44.32077557757314 L-3.978329605880127 -44.61240272995255 L-3.8971352664065635 -44.92064845180031 L-3.8045927628072516 -45.24433496608161 L-3.699879777762933 -45.58357886707779 L-3.6094675153102305 -45.85816897467381 A46 46 0 0 1 -2.807883154984343 -45.914221213495175 L-2.680135221687653 -45.65488635288089 L-2.5292276705322227 -45.33351718104844 L-2.3925373282849405 -45.02586018886995 L-2.2692336535744784 -44.73191436120284 L-2.159019430905628 -44.452910820684984 L-2.0607449799899964 -44.18801918473317 L-1.9866747988064664 -43.97755598828438 L-1.964799650597689 -43.93452320553861 L-1.953606407955805 -43.920585353510425 L-1.9423995235151348 -43.911701056063045 L-1.9312689424501106 -43.90786717224179 L-1.8783809578350663 -43.90999423203381 L-1.5338328800749252 -43.92322684748926 L-1.189201043522698 -43.93406092495985 L-1.1362935151895006 -43.935628325888764 L-1.125457485876645 -43.94022930064754 L-1.1148976381048394 -43.949873709133094 L-1.104703917048515 -43.96455841039072 L-1.0858838707810745 -44.00901230064221 L-1.026675291273338 -44.22412969397124 L-0.9471181384291917 -44.4952313463663 L-0.8566346952160672 -44.781243403811956 L-0.7541360064698346 -45.083074423764025 L-0.63923970192333 -45.39951701524242 L-0.5111173341750288 -45.730630126554196 L-0.4017708738186381 -45.99824450583703 A46 46 0 0 1 0.401770873818627 -45.99824450583703 L0.5111173341750177 -45.730630126554196 L0.6392397019233189 -45.39951701524242 L0.7541360064698235 -45.083074423764025 L0.8566346952160563 -44.781243403811956 L0.9471181384291808 -44.4952313463663 L1.0266752912733272 -44.22412969397124 L1.0858838707810639 -44.00901230064221 L1.1047039170485042 -43.96455841039072 L1.1148976381048288 -43.949873709133094 L1.1254574858766344 -43.94022930064754 L1.13629351518949 -43.935628325888764 L1.1892010435226874 -43.93406092495985 L1.5338328800749146 -43.92322684748926 L1.8783809578350557 -43.90999423203381 L1.9312689424501 -43.90786717224179 L1.9423995235151241 -43.911701056063045 L1.9536064079557944 -43.920585353510425 L1.9647996505976784 -43.93452320553861 L1.9866747988064557 -43.97755598828438 L2.0607449799899857 -44.18801918473317 L2.159019430905617 -44.452910820684984 L2.2692336535744673 -44.73191436120284 L2.392537328284929 -45.02586018886995 L2.5292276705322116 -45.33351718104844 L2.6801352216876415 -45.65488635288089 L2.8078831549843315 -45.914221213495175 A46 46 0 0 1 3.6094675153101994 -45.85816897467381 L3.699879777762902 -45.5835788670778 L3.80459276280722 -45.24433496608161 L3.8971352664065324 -44.92064845180032 L3.9783296058800968 -44.61240272995256 L4.048641443397525 -44.320775577573144 L4.109093703718587 -44.04478468873427 L4.153152223302794 -43.826061128841765 L4.168825478255267 -43.780402705969365 L4.177970014941715 -43.765042697870726 L4.187831379527784 -43.75468516493568 L4.198320065042893 -43.74933951472592 L4.25098937693445 -43.74408528929586 L4.594025960613352 -43.70923730143562 L4.936811675980411 -43.67200246102649 L4.989422451932539 -43.666191303335026 L5.000793357677626 -43.66923941792217 L5.012592679972678 -43.67732032092725 L5.024730911847111 -43.69044341991196 L5.049554588474034 -43.7318454437601 L5.13812550885614 -43.93662908779123 L5.2546384745969075 -44.194020181876255 L5.384046524107337 -44.46465592826225 L5.5275544616732795 -44.74928448911933 L5.685372900013976 -45.04665700805762 L5.85833042815648 -45.356716562109476 L6.003857459303625 -45.60650845068256 A46 46 0 0 1 6.799579193889606 -45.49467705391301 L6.870616778984159 -45.214448993406315 L6.951410230187071 -44.868727064910715 L7.021148075063995 -44.53937359598724 L7.080642494604602 -44.22621491441585 L7.130440174221671 -43.930393445274824 L7.171493024684004 -43.65085791986005 L7.200186835666015 -43.42959379260186 L7.212636940780861 -43.38295328035522 L7.220687741833902 -43.366992797831045 L7.229802579657232 -43.35597260130582 L7.239892821553083 -43.34990831911556 L7.2920673174097645 -43.34099286724249 L7.631837408461575 -43.28230074488655 L7.971190743886983 -43.22124508392338 L8.023267996764174 -43.21177813970862 L8.034823829279532 -43.21402563495377 L8.047158104316807 -43.2212637741694 L8.060182189178228 -43.2335081856915 L8.087833455766038 -43.27307774414354 L8.190473606725735 -43.47118415042808 L8.324657447834396 -43.7198207191088 L8.472628861177238 -43.980770161210756 L8.635641905352209 -44.25469477352007 L8.813819564218578 -44.54033405019767 L9.007984437656676 -44.83757340748867 L9.170581573586853 -45.076605363048415 A46 46 0 0 1 9.956564006127694 -44.90953963965449 L10.007880825890192 -44.62503886917948 L10.064361125678765 -44.274523235668234 L10.110954556063085 -43.94110738909668 L10.14845920483909 -43.62456142541969 L10.177500117266348 -43.32598685197883 L10.198953552509119 -43.04426855896917 L10.21214286152612 -42.82154184093189 L10.2213091611427 -42.774146467198385 L10.228227003868868 -42.757663268115195 L10.236550908355804 -42.74603409728953 L10.246193547988147 -42.73928072769202 L10.297619038910705 -42.72674748456128 L10.632467311605387 -42.644497169830046 L10.96673497175063 -42.559918145355745 L11.018024986411652 -42.5468415366183 L11.029709446842856 -42.548277462950544 L11.04251858327421 -42.55463757489004 L11.056365069090349 -42.565943645407394 L11.086709211447728 -42.60348795955209 L11.202918540486893 -42.79395197359219 L11.354119526777673 -43.032622684498854 L11.519933402101161 -43.28261450286539 L11.701657369719953 -43.54450063345059 L11.899326185468354 -43.81701506202388 L12.113752452456039 -44.099986102283694 L12.292627536267203 -44.32709358517001 A46 46 0 0 1 13.06504143935824 -44.10560746256271 L13.096387483401147 -43.818220041275225 L13.128279465432193 -43.46461837968109 L13.151501482814629 -43.12876452395112 L13.166833641947152 -42.81037345828448 L13.17497630277844 -42.51050040585298 L13.176725803821634 -42.227971848453734 L13.17434635388588 -42.00486764181925 L13.180184190713858 -41.956948312095534 L13.185935372078767 -41.94002270094238 L13.193427790003366 -41.92784121196758 L13.202575849401187 -41.920431656700636 L13.253001795567114 -41.90434168301293 L13.581296902778934 -41.798933891172005 L13.90885036920425 -41.69124356369197 L13.959103265853331 -41.674620998355145 L13.970859428683674 -41.67523836008572 L13.984081021683984 -41.68068945892304 L13.998682449767793 -41.69100210639657 L14.031571634283353 -41.72633826410934 L14.16078398123223 -41.90823196437398 L14.328265476698594 -42.13577403779415 L14.5111139854697 -42.37359029741527 L14.710663535628905 -42.622162063372826 L14.926860485658612 -42.88022398093886 L15.160503482977171 -43.147548097703506 L15.354785053241457 -43.36162466308854 A46 46 0 0 1 16.109867303989606 -43.08679719939349 L16.12108985753724 -42.79792324992195 L16.128238147280072 -42.44295827199631 L16.12797561632621 -42.10630265333311 L16.12106058907714 -41.78761765494419 L16.10826532808738 -41.487907074890366 L16.090302371537778 -41.205944703833524 L16.07236575509017 -40.98354994987019 L16.07484668777534 -40.93534012231385 L16.07940318860149 -40.91805455896691 L16.086027617656757 -40.90538009883277 L16.09463652839423 -40.89735045650486 L16.143817259662608 -40.87778214099463 L16.463959780629335 -40.74973040821031 L16.783203245771862 -40.61945343417502 L16.83217419734793 -40.599365895706235 L16.84394478773383 -40.599161685110865 L16.857514423031027 -40.6036772136404 L16.872799656692607 -40.61294619588825 L16.908073650565402 -40.64590204296069 L17.049659505858035 -40.81833926162608 L17.232605557489247 -41.033644135450494 L17.431597880153113 -41.25812621941454 L17.648000827503004 -41.49217260408707 L17.88167262200551 -41.73452475892375 L18.133394064457722 -41.98489957596766 L18.342135600893915 -42.18490226434376 A46 46 0 0 1 19.076207514474117 -41.85807239133853 L19.06725190237368 -41.56911927852727 L19.049621674079216 -41.214520337961616 L19.025875873813472 -40.878703108698815 L18.996747349500463 -40.56127677886566 L18.96307650391503 -40.26318883100872 L18.92548860349131 -39.98316633862332 L18.892082205924204 -39.762564522217396 L18.8911941476119 -39.714299070262264 L18.89453376908528 -39.69673776824862 L18.900257935718745 -39.683632085650885 L18.908285756048123 -39.6750214758723 L18.95598166883984 -39.65207015340571 L19.26641190137994 -39.5019983348484 L19.575790043167743 -39.34976941057996 L19.62324046811726 -39.326314763447456 L19.634968140925533 -39.32528997541962 L19.64881970862047 -39.32884793444028 L19.664714279737886 -39.33702809391264 L19.702201231615497 -39.367443072770534 L19.855470803197058 -39.529583713040665 L20.052990116219252 -39.731602443566416 L20.267156782182486 -39.94165669772518 L20.499358833316325 -40.16003745065281 L20.74936704679742 -40.38549912742292 L21.017940572818613 -40.61770484380506 L21.240125107643824 -40.80265926217866 A46 46 0 0 1 21.9496103594818 -40.42541926215169 L21.920520212575227 -40.13779473652085 L21.878197358943535 -39.78528940370946 L21.83108397651788 -39.451946631631806 L21.77988386638341 -39.137325439525775 L21.725501477177406 -38.84231237838399 L21.668471757352112 -38.56559400610516 L21.619758331276454 -38.34785987713138 L21.615505608497507 -38.29977394520773 L21.617612080318 -38.28202246142554 L21.622408096965213 -38.268549405932454 L21.629815716152805 -38.259399778728486 L21.675794440775114 -38.23317726584155 L21.97499999999999 -38.06181649632609 L22.273005559224863 -37.88837726584154 L22.318704283847175 -37.86166977872849 L22.330331903034764 -37.85982940593245 L22.344397919681978 -37.862412461425535 L22.36082439150247 -37.86946394520773 L22.400341668723524 -37.897189877131375 L22.56454824264787 -38.048244006105165 L22.77567852282257 -38.23599237838399 L23.003976133616565 -38.43059543952578 L23.25084602348209 -38.63224663163181 L23.51597264105644 -38.83971940370946 L23.800089787424746 -39.05262473652085 L24.034634859919212 -39.221629805557185 A46 46 0 0 1 24.716076909185208 -38.79581755386858 L24.6669939517441 -38.51092289319512 L24.600184665463797 -38.162228538685746 L24.52993323254159 -37.832984236271294 L24.456910978375607 -37.52270098471472 L24.38208199108275 -37.232200084267355 L24.305888294918258 -36.960133976189205 L24.242105167249235 -36.74632831343736 L24.23450849884154 -36.69865617137196 L24.23537155849018 -36.68080098926584 L24.23921605944013 -36.66702620024945 L24.245967388309865 -36.65738213168413 L24.29000492103817 -36.62801618182374 L24.576528107539318 -36.43620131379409 L24.86170923107213 -36.242396755590306 L24.9054336157745 -36.212566544689295 L24.916904532749523 -36.20991955323632 L24.931116470129822 -36.211515120815115 L24.94799481453386 -36.217403574786964 L24.989349892895994 -36.24230538182303 L25.163693471240958 -36.38153707896803 L25.387406113065893 -36.55410040180259 L25.628722425679253 -36.73230418337495 L25.889057428988327 -36.91624339032135 L26.168010780425536 -37.10471647121607 L26.46628735696321 -37.29728416707642 L26.712050287110134 -37.449516511067465 A46 46 0 0 1 27.362129216638426 -36.977206522204966 L27.293292575897635 -36.69642970463818 L27.202322345095826 -36.35324513227533 L27.10927511959662 -36.02970334466993 L27.014786478481252 -35.72526970247484 L26.919875452405847 -35.44069625390784 L26.824888987930912 -35.17460788876094 L26.746346903655066 -34.96577233192828 L26.735443299823494 -34.918746233605276 L26.735058742560422 -34.900874341827645 L26.737932997790928 -34.88686492867542 L26.743995144547196 -34.87677340368137 L26.785876938948686 -34.84440708480339 L27.05832184056268 -34.63307262101544 L27.329289154635884 -34.41984693141882 L27.3708261786112 -34.38703932651882 L27.382084508219208 -34.38359861228521 L27.396373127202256 -34.38419891850485 L27.41362111459251 -34.38889565471051 L27.456612516310948 -34.410852017758245 L27.640243714687784 -34.53758296024149 L27.8754488126595 -34.69412052246893 L28.128608158274208 -34.85505683356103 L28.40113994905948 -35.02038792202105 L28.692561001671645 -35.18894308982797 L29.00354383488045 -35.36023497827989 L29.259327290388153 -35.494952936548074 A46 46 0 0 1 29.874875980979795 -34.978446257300966 L29.786621022133573 -34.70315519927245 L29.671933044630432 -34.36715236979592 L29.55654334328378 -34.05088936006646 L29.441048654380577 -33.753788497336046 L29.32651798650124 -33.47652891388561 L29.213201518222775 -33.217714647437845 L29.120283126479677 -33.01486662236518 L29.10612570848607 -32.968715674208575 L29.10449540783562 -32.950914142819705 L29.10638541426412 -32.936738357984275 L29.111728844737286 -32.926248541456886 L29.15125085691958 -32.89103953901344 L29.40829014947182 -32.66121507973148 L29.663723528568795 -32.42960707286837 L29.702870827611534 -32.39398190932266 L29.71386172040236 -32.38976423512229 L29.728157408272757 -32.38936635535122 L29.745691008188423 -32.39284849176402 L29.790109283475473 -32.411752441629694 L29.982133469144237 -32.52536520903834 L30.22768512766815 -32.66511437539061 L30.491454139399853 -32.80799915047206 L30.774854970171422 -32.95391664400175 L31.077323949883752 -33.101732714886424 L31.399497962660185 -33.250914279067565 L31.664055792244696 -33.367461519262 A46 46 0 0 1 32.24207535255384 -32.80927451825254 L32.13483204489033 -32.54081041012485 L31.996985068983864 -32.213626295544934 L31.859815058815794 -31.90618286528419 L31.7238770006396 -31.617862227557218 L31.59028467285766 -31.349267290043862 L31.45919026721859 -31.098988039385453 L31.352348257072688 -30.90311580126074 L31.335005998434408 -30.858064846050855 L31.332137897057475 -30.84042040232226 L31.33303444676263 -30.826147308802415 L31.33763312829655 -30.815310306073357 L31.374602810989035 -30.777430154785158 L31.614984224883706 -30.530235381672945 L31.853639223257563 -30.281373428471625 L31.89020607566186 -30.243104268495976 L31.900875985110634 -30.238130182413588 L31.915109094714072 -30.236736055082055 L31.93284288521883 -30.238986627083403 L31.9784716327022 -30.2547460656235 L32.17795328313252 -30.35468714797505 L32.432655199211055 -30.476967074561202 L32.70574882094858 -30.601104193370546 L32.99863799134627 -30.726897196609006 L33.31068129969369 -30.8532540255325 L33.64247689263232 -30.97959846785786 L33.91452019714117 -31.07740718353961 A46 46 0 0 1 34.45219457397235 -30.48025929172791 L34.32648539610643 -30.219930063649915 L34.16615099840691 -29.903158672084434 L34.00786895791869 -29.60603265478052 L33.8521498070245 -29.3278969112221 L33.700146667732255 -29.069275187182335 L33.55191300349929 -28.828750287664498 L33.431667898484285 -28.640808106342867 L33.411225288942184 -28.597076627804984 L33.40713335994037 -28.5796752336929 L33.40703208502214 -28.56537436856554 L33.41086361330264 -28.554242976422785 L33.44510085392742 -28.513876224579207 L33.66765327507908 -28.250515445723412 L33.888367189567255 -27.98561197660436 L33.92217544530389 -27.944885263699362 L33.9324723886843 -27.93917899898236 L33.94657357774151 -27.93679541613859 L33.964421161590614 -27.937803459167927 L34.01103808259915 -27.950341607982004 L34.217005343241944 -28.036124102369293 L34.47961663474254 -28.140339053678538 L34.76070438181203 -28.245123732651148 L35.0616549652388 -28.35017939473127 L35.381752358589516 -28.454461383924407 L35.721553056913514 -28.557353166971073 L35.99975646871283 -28.63594684390904 A46 46 0 0 1 36.494466166548946 -28.002747305798938 L36.35090356095894 -27.751821255601637 L36.168862874535215 -27.44700586542854 L35.99023993791763 -27.161644829170765 L35.815498342355774 -26.895049029165406 L35.64582493556855 -26.647660497642182 L35.48117419225343 -26.418061762397897 L35.34811181443397 -26.23896527329486 L35.32466844832685 -26.196766326796542 L35.319372627166935 -26.179692760143904 L35.31827402102654 -26.16543379578641 L35.32131972923298 -26.154062245253556 L35.35265772739524 -26.11140555561193 L35.55629690277894 -25.833161838254203 L35.75799443737613 -25.553507436290964 L35.78887938602155 -25.510521586908062 L35.7987531976605 -25.504110943904553 L35.81265376659582 -25.50074951812456 L35.8305281921548 -25.500510121097577 L35.87790617373526 -25.50976589558494 L36.08935559280045 -25.580971878318138 L36.358596843908494 -25.666614129583348 L36.646309285061086 -25.751535868296195 L36.953855080525905 -25.835342368592475 L37.280447076555596 -25.917041466686303 L37.62659740541939 -25.995979312029913 L37.9096055454518 -26.054975049730256 A46 46 0 0 1 38.35894038837303 -25.388808749822424 L38.198223777642504 -25.148508363999383 L37.995363686420156 -24.85713400515966 L37.7972700866653 -24.584928200232273 L37.60435736992438 -24.33117117171949 L37.41784032742454 -24.09622108477098 L37.23757466689807 -23.87866709575917 L37.09234328280351 -23.709288838966923 L37.066013373854524 -23.66882801353369 L37.05953946124486 -23.652165455040997 L37.05744887618099 -23.638017859694415 L37.05969392592914 -23.62646155182259 L37.08798000605193 -23.581722743487013 L37.27171382607492 -23.28995166304936 L37.45341233066714 -22.996908776377545 L37.481223503856086 -22.951873213254 L37.49062607953578 -22.944789423972303 L37.504258306174656 -22.940466531784605 L37.522072491038905 -22.938980861019544 L37.569980712427466 -22.94490916797729 L37.78588212960017 -23.001191730666115 L38.0604416240043 -23.067844041447856 L38.35337705314745 -23.13248910972623 L38.66601972844922 -23.19463815139343 L38.997515203782136 -23.253356328594396 L39.34832875357839 -23.307955658987247 L39.634762834633534 -23.347066036146124 A46 46 0 0 1 40.03653370845217 -22.651178469690908 L39.85944608775342 -22.42267446756695 L39.636754905705466 -22.146160686648017 L39.42015573491905 -21.888436272370594 L39.21001174836351 -21.648754294085727 L39.00755976243348 -21.42738730491845 L38.812557420873496 -21.222937963305128 L38.65586458320853 -21.064103132664922 L38.626776408087416 -21.025577549371175 L38.61915594427949 -21.00940717734849 L38.616083565412424 -20.995439876675235 L38.61751701904558 -20.983755112634757 L38.642613374189835 -20.937152148582314 L38.80554670614984 -20.6332751844399 L38.966360963886984 -20.328271488546797 L38.99096286837924 -20.281405620419196 L38.99984839969612 -20.27368319636863 L39.01314586920066 -20.26841989846942 L39.03081302445221 -20.265695192004923 L39.079018081609966 -20.268267149317456 L39.298319646888054 -20.309352088973995 L39.576859758330166 -20.356689735914 L39.87359102349886 -20.40074318948335 L40.18980741495024 -20.44093198863767 L40.52459135695238 -20.476383175888785 L40.87835899933015 -20.506377988881503 L41.16682354335737 -20.525412463672755 A46 46 0 0 1 41.519073060762 -19.803193924943592 L41.3264771831823 -19.587599555047913 L41.08503983936282 -19.327293499395342 L40.85099034693245 -19.085306083207882 L40.62463889094119 -18.860866861656387 L40.40723828730602 -18.65416144798983 L40.198449296519044 -18.463812810416165 L40.031058397038066 -18.316295233256852 L39.999353670410066 -18.27989258487182 L39.99062378153754 -18.2642931797462 L39.986584577188296 -18.250574221031158 L39.98719945106444 -18.23881792781789 L40.00898381431059 -18.19057785300493 L40.1503228633923 -17.87607546318145 L40.289469403375655 -17.560596905414588 L40.31074218116552 -17.512129058081506 L40.319067378704176 -17.503805622135793 L40.33196530713962 -17.497627560783375 L40.34939936017397 -17.493677093115448 L40.397666402908015 -17.49288017046527 L40.61929970110957 -17.518567325393363 L40.900463410165464 -17.546359684234105 L41.19954486646311 -17.56960689909688 L41.51779439959091 -17.5876396599486 L41.854235774549196 -17.599651142629117 L42.209233989115425 -17.604895306507874 L42.49832362585258 -17.603761144883656 A46 46 0 0 1 42.79933566260246 -16.85873021000397 L42.5921698358977 -16.65709582643524 L42.33316258877661 -16.414265680986297 L42.08280304030282 -16.189194201255965 L41.841346876416665 -15.981091181764699 L41.61005680896423 -15.790054391596286 L41.388498367925976 -15.614733817490755 L41.21122491826519 -15.479252184619847 L41.1770581023715 -15.44514982118728 L41.16726131957543 -15.430197381692448 L41.16227496834156 -15.416793602323462 L41.162068266857 -15.40502305541619 L41.180434506977036 -15.355380890638122 L41.299490683540675 -15.031785299163134 L41.41629159781442 -14.70736885934416 L41.434131610066835 -14.657535163285832 L41.4418559143017 -14.648651266388228 L41.454291464257196 -14.641588540476498 L41.47140747812043 -14.636431557886512 L41.51950135425035 -14.632269637800677 L41.74238661022504 -14.642433862763575 L42.02480411556667 -14.650545531926461 L42.32477866820176 -14.65287324998865 L42.64351086327092 -14.648662118739548 L42.97997056262552 -14.637175378113232 L43.33446983376313 -14.61764334383875 L43.62277614755922 -14.596346071320495 A46 46 0 0 1 43.87108420326888 -13.832132456114914 L43.650357718522514 -13.645440401321661 L43.37504242537247 -13.421269210135772 L43.10959254740937 -13.214210192487712 L42.854208025787685 -13.023457232049187 L42.610155316477424 -12.849019777417672 L42.37690683564165 -12.689581410994155 L42.190614494228335 -12.566795775308432 L42.154152046361546 -12.535159840115016 L42.14333609858295 -12.520927213033177 L42.137426893466454 -12.507903914875985 L42.13639962365003 -12.496176459196077 L42.15125826216828 -12.445374056089689 L42.24745153648911 -12.114261788157139 L42.34133778273968 -11.782487990570624 L42.35565811470821 -11.731531230544983 L42.3627438936055 -11.722130154148168 L42.374656480331694 -11.714217172567823 L42.39137106752477 -11.70787879935658 L42.439057468520424 -11.700372158291387 L42.66210880770549 -11.694963934206775 L42.94440419963535 -11.68335539445503 L43.24381040274078 -11.664752275308212 L43.56147242853576 -11.638317768166434 L43.89631125445223 -11.603388766478979 L44.248584497346386 -11.559175692158892 L44.53470288882106 -11.51781906691751 A46 46 0 0 1 44.72909723160294 -10.738145943300687 L44.49588544606134 -10.567305762207642 L44.205603415315956 -10.362885664794653 L43.92635645298606 -10.174847879949352 L43.65828778134701 -10.002374307812403 L43.40266143044659 -9.845386030462357 L43.15885927296588 -9.702606639415382 L42.96445563736136 -9.593115200189533 L42.92587519890228 -9.5640998203315 L42.91409278035153 -9.550656345591138 L42.90728951040573 -9.538076976845266 L42.905446677012726 -9.526449747377953 L42.91672532413592 -9.47473461014454 L42.98958705225076 -9.137718811440505 L43.06010122612384 -8.800204024678507 L43.07083211059062 -8.748372456898238 L43.077244842947806 -8.738500002101423 L43.08857642951961 -8.729775316103312 L43.10480815825387 -8.722286432187971 L43.15185476076304 -8.711471641744126 L43.37398549945501 -8.690517316936113 L43.65478346319984 -8.659245123908516 L43.952162639850286 -8.619801800079198 L44.267206878912695 -8.57127270330635 L44.59879353028905 -8.513071611142923 L44.94712450511075 -8.444392898431033 L45.22966103422126 -8.38317840578755 A46 46 0 0 1 45.36919459437777 -7.591844262845432 L45.12463369241769 -7.4376882716420845 L44.820799148951714 -7.2540151821683585 L44.52911556538569 -7.085914731312085 L44.24966874735135 -6.932560821383183 L43.98371414074688 -6.793786552421451 L43.730546086225566 -6.6683617435920635 L43.52897827140112 -6.572697932111957 L43.48846780236784 -6.546444467603356 L43.47577631580375 -6.533855640462074 L43.46811212587597 -6.521781486547578 L43.46546270700543 -6.510311129986057 L43.47310641429849 -6.457935209575834 L43.522281621192015 -6.116657787194893 L43.569080184720555 -5.775046349371647 L43.576169341895124 -5.722592492024887 L43.58187778552476 -5.712296756435469 L43.59257316559145 -5.702802871812773 L43.6082429565161 -5.694199962282987 L43.65442055422047 -5.68012971103243 L43.87454849378894 -5.64373137286516 L44.1524810098951 -5.592947881542673 L44.44638435863436 -5.532856516939723 L44.75727594709962 -5.462469259417155 L45.08399496710134 -5.381279626648426 L45.426686640355356 -5.2884698713295055 L45.70426481753234 -5.207695742138818 A46 46 0 0 1 45.78825780158427 -4.40855588027107 L45.533539259336905 -4.271835111450859 L45.21763245450477 -4.109803866745555 L44.91493330280182 -3.962459718377485 L44.62546977517974 -3.8289725954907214 L44.35048261698094 -3.709088429206143 L44.089182074732285 -3.6016292596553017 L43.88143209882022 -3.5202591403943777 L43.839188962145776 -3.496895495475307 L43.82565023921512 -3.4852226474335106 L43.81716246846829 -3.4737125324145732 L43.81371937182264 -3.462454931183018 L43.81769089991199 -3.4096733978154137 L43.84294000891928 -3.0657970210543195 L43.86579496420594 -2.721753228756239 L43.86920785642714 -2.6689326317633384 L43.87418420036568 -2.6582637751701825 L43.884191267110666 -2.6480469451744613 L43.89922277857945 -2.638371922540697 L43.94430639886475 -2.6211147593331874 L44.161359098115334 -2.569449736851462 L44.43507210730202 -2.4994023592990695 L44.724067760558114 -2.41895571301047 L45.02929206585794 -2.3270532143815292 L45.34955171226124 -2.2232705887371913 L45.684934524562735 -2.1067819506099523 L45.956202016829046 -2.006841708310092 A46 46 0 0 1 45.98424521940104 -1.2037894565945155 L45.72061 -1.0851700000000084 L45.39417 -0.9455700000000083 L45.08193 -0.8197000000000083 L44.78386 -0.7067300000000082 L44.50118 -0.6063200000000082 L44.23302 -0.5173500000000081 L44.0201 -0.4506700000000081 L43.97633 -0.43031000000000813 L43.96201 -0.41961000000000803 L43.95274 -0.4087200000000081 L43.94852 -0.397730000000008 L43.9488 -0.34480000000000804 L43.95 -8.073484023378926e-15 L43.9488 0.34479999999999195 L43.94852 0.3977299999999919 L43.95274 0.408719999999992 L43.96201 0.41960999999999193 L43.97633 0.4303099999999919 L44.0201 0.4506699999999919 L44.23302 0.5173499999999919 L44.50118 0.6063199999999918 L44.78386 0.7067299999999918 L45.08193 0.8196999999999917 L45.39417 0.9455699999999917 L45.72061 1.0851699999999915 L45.98424521940104 1.2037894565944987 A46 46 0 0 1 45.95620201682905 2.0068417083100747 L45.68493452456274 2.1067819506099354 L45.349551712261245 2.223270588737175 L45.02929206585794 2.3270532143815132 L44.72406776055812 2.4189557130104538 L44.43507210730203 2.4994023592990535 L44.16135909811534 2.5694497368514457 L43.944306398864754 2.6211147593331714 L43.89922277857946 2.638371922540681 L43.88419126711067 2.6480469451744457 L43.87418420036568 2.658263775170167 L43.869207856427145 2.6689326317633224 L43.86579496420594 2.721753228756223 L43.84294000891928 3.0657970210543035 L43.81769089991199 3.4096733978153977 L43.81371937182265 3.462454931183002 L43.81716246846829 3.4737125324145577 L43.82565023921513 3.485222647433495 L43.83918896214578 3.496895495475291 L43.88143209882023 3.5202591403943617 L44.08918207473229 3.601629259655286 L44.35048261698095 3.709088429206127 L44.625469775179745 3.828972595490705 L44.91493330280182 3.962459718377469 L45.21763245450478 4.109803866745539 L45.53353925933691 4.271835111450843 L45.78825780158428 4.408555880271054 A46 46 0 0 1 45.70426481753234 5.207695742138802 L45.42668664035536 5.2884698713294895 L45.08399496710134 5.381279626648409 L44.75727594709963 5.462469259417139 L44.44638435863437 5.532856516939707 L44.1524810098951 5.592947881542657 L43.87454849378895 5.643731372865144 L43.65442055422047 5.680129711032414 L43.60824295651611 5.69419996228297 L43.59257316559145 5.702802871812757 L43.58187778552476 5.712296756435453 L43.57616934189513 5.722592492024871 L43.569080184720555 5.775046349371632 L43.52228162119202 6.116657787194877 L43.47310641429849 6.457935209575819 L43.465462707005436 6.510311129986041 L43.46811212587597 6.521781486547562 L43.47577631580375 6.533855640462058 L43.48846780236785 6.546444467603341 L43.52897827140112 6.572697932111941 L43.73054608622557 6.6683617435920475 L43.98371414074688 6.793786552421435 L44.24966874735136 6.932560821383167 L44.529115565385695 7.085914731312069 L44.82079914895173 7.254015182168342 L45.124633692417696 7.4376882716420685 L45.36919459437777 7.591844262845416 A46 46 0 0 1 45.229661034221266 8.383178405787532 L44.94712450511076 8.444392898431015 L44.59879353028906 8.513071611142907 L44.267206878912695 8.571272703306333 L43.95216263985029 8.619801800079182 L43.65478346319985 8.6592451239085 L43.37398549945502 8.690517316936097 L43.151854760763044 8.71147164174411 L43.104808158253874 8.722286432187955 L43.08857642951962 8.729775316103296 L43.07724484294781 8.738500002101407 L43.07083211059063 8.748372456898222 L43.06010122612385 8.800204024678491 L42.98958705225077 9.13771881144049 L42.916725324135925 9.474734610144525 L42.90544667701273 9.526449747377937 L42.90728951040574 9.53807697684525 L42.91409278035154 9.550656345591122 L42.92587519890229 9.564099820331483 L42.96445563736137 9.593115200189517 L43.158859272965884 9.702606639415366 L43.4026614304466 9.845386030462342 L43.65828778134702 10.002374307812387 L43.92635645298606 10.174847879949334 L44.20560341531596 10.362885664794637 L44.495885446061344 10.567305762207624 L44.72909723160295 10.738145943300669 A46 46 0 0 1 44.53470288882106 11.517819066917495 L44.24858449734639 11.559175692158876 L43.896311254452236 11.603388766478963 L43.561472428535765 11.63831776816642 L43.24381040274078 11.664752275308198 L42.94440419963536 11.683355394455015 L42.6621088077055 11.694963934206761 L42.43905746852043 11.700372158291373 L42.39137106752478 11.707878799356566 L42.3746564803317 11.714217172567809 L42.362743893605504 11.72213015414815 L42.35565811470821 11.731531230544967 L42.341337782739686 11.78248799057061 L42.247451536489116 12.114261788157124 L42.151258262168284 12.445374056089674 L42.13639962365003 12.496176459196061 L42.13742689346646 12.507903914875971 L42.14333609858296 12.520927213033163 L42.15415204636155 12.535159840115002 L42.19061449422834 12.566795775308417 L42.376906835641655 12.68958141099414 L42.61015531647743 12.849019777417658 L42.854208025787685 13.023457232049173 L43.10959254740938 13.214210192487698 L43.37504242537248 13.421269210135756 L43.65035771852252 13.645440401321645 L43.87108420326888 13.8321324561149 A46 46 0 0 1 43.62277614755923 14.596346071320477 L43.33446983376314 14.617643343838733 L42.979970562625525 14.637175378113215 L42.643510863270926 14.64866211873953 L42.32477866820176 14.652873249988632 L42.024804115566674 14.650545531926445 L41.74238661022504 14.642433862763557 L41.51950135425035 14.63226963780066 L41.47140747812044 14.636431557886494 L41.4542914642572 14.641588540476482 L41.4418559143017 14.64865126638821 L41.434131610066835 14.657535163285814 L41.41629159781443 14.707368859344143 L41.29949068354068 15.031785299163117 L41.18043450697704 15.355380890638106 L41.162068266857 15.405023055416173 L41.16227496834156 15.416793602323445 L41.16726131957544 15.430197381692432 L41.177058102371504 15.445149821187263 L41.21122491826519 15.47925218461983 L41.388498367925976 15.614733817490738 L41.61005680896424 15.79005439159627 L41.841346876416665 15.98109118176468 L42.08280304030283 16.189194201255948 L42.33316258877662 16.41426568098628 L42.59216983589771 16.65709582643522 L42.799335662602466 16.85873021000395 A46 46 0 0 1 42.49832362585259 17.603761144883638 L42.20923398911543 17.604895306507853 L41.85423577454921 17.599651142629103 L41.517794399590926 17.587639659948582 L41.199544866463114 17.569606899096865 L40.90046341016547 17.54635968423409 L40.619299701109576 17.51856732539335 L40.397666402908015 17.492880170465256 L40.349399360173976 17.493677093115434 L40.331965307139626 17.49762756078336 L40.31906737870418 17.50380562213578 L40.31074218116554 17.51212905808149 L40.28946940337566 17.560596905414574 L40.150322863392304 17.876075463181436 L40.0089838143106 18.190577853004914 L39.987199451064456 18.238817927817877 L39.9865845771883 18.250574221031144 L39.99062378153755 18.264293179746186 L39.99935367041009 18.279892584871806 L40.03105839703808 18.316295233256838 L40.19844929651905 18.46381281041615 L40.40723828730603 18.654161447989814 L40.6246388909412 18.860866861656373 L40.85099034693246 19.085306083207865 L41.085039839362835 19.327293499395328 L41.326477183182305 19.5875995550479 L41.51907306076201 19.803193924943574 A46 46 0 0 1 41.166823543357374 20.52541246367274 L40.87835899933016 20.506377988881486 L40.52459135695238 20.476383175888767 L40.189807414950245 20.440931988637654 L39.87359102349886 20.400743189483336 L39.57685975833017 20.356689735913985 L39.29831964688806 20.30935208897398 L39.07901808160997 20.268267149317442 L39.030813024452215 20.26569519200491 L39.01314586920067 20.268419898469407 L38.99984839969613 20.273683196368616 L38.99096286837925 20.281405620419182 L38.96636096388699 20.328271488546783 L38.80554670614985 20.633275184439885 L38.64261337418984 20.9371521485823 L38.617517019045586 20.983755112634743 L38.61608356541243 20.99543987667522 L38.6191559442795 21.009407177348475 L38.62677640808742 21.02557754937116 L38.65586458320854 21.064103132664908 L38.8125574208735 21.222937963305114 L39.00755976243349 21.427387304918437 L39.21001174836351 21.648754294085713 L39.42015573491906 21.88843627237058 L39.636754905705466 22.146160686648 L39.859446087753426 22.42267446756693 L40.036533708452176 22.651178469690894 A46 46 0 0 1 39.63476283463355 23.34706603614611 L39.34832875357841 23.307955658987233 L38.99751520378215 23.253356328594382 L38.666019728449236 23.194638151393416 L38.35337705314746 23.132489109726215 L38.060441624004305 23.067844041447838 L37.785882129600175 23.0011917306661 L37.56998071242747 22.944909167977276 L37.52207249103892 22.93898086101953 L37.50425830617467 22.940466531784587 L37.490626079535794 22.94478942397229 L37.48122350385609 22.951873213253986 L37.45341233066715 22.99690877637753 L37.27171382607493 23.289951663049347 L37.087980006051936 23.581722743487 L37.059693925929146 23.626461551822576 L37.057448876181006 23.6380178596944 L37.059539461244874 23.652165455040986 L37.06601337385454 23.668828013533677 L37.09234328280352 23.70928883896691 L37.23757466689808 23.878667095759155 L37.41784032742455 24.096221084770963 L37.604357369924394 24.331171171719475 L37.797270086665314 24.58492820023226 L37.99536368642017 24.857134005159647 L38.19822377764252 25.14850836399937 L38.35894038837304 25.38880874982241 A46 46 0 0 1 37.9096055454518 26.054975049730242 L37.626597405419396 25.9959793120299 L37.2804470765556 25.91704146668629 L36.95385508052592 25.835342368592457 L36.64630928506109 25.751535868296177 L36.3585968439085 25.66661412958333 L36.08935559280046 25.580971878318124 L35.877906173735276 25.509765895584927 L35.830528192154816 25.500510121097562 L35.81265376659583 25.500749518124547 L35.79875319766051 25.504110943904536 L35.788879386021556 25.510521586908045 L35.75799443737614 25.55350743629095 L35.556296902778946 25.833161838254185 L35.352657727395254 26.111405555611917 L35.32131972923299 26.154062245253538 L35.31827402102655 26.16543379578639 L35.31937262716694 26.17969276014389 L35.32466844832686 26.196766326796528 L35.348111814433985 26.238965273294845 L35.481174192253434 26.418061762397883 L35.645824935568555 26.647660497642164 L35.81549834235578 26.89504902916539 L35.99023993791764 27.161644829170747 L36.16886287453522 27.447005865428526 L36.35090356095895 27.751821255601623 L36.49446616654896 28.002747305798923 A46 46 0 0 1 35.99975646871284 28.63594684390903 L35.72155305691353 28.557353166971062 L35.38175235858953 28.454461383924397 L35.06165496523881 28.35017939473126 L34.76070438181204 28.24512373265114 L34.47961663474255 28.140339053678527 L34.21700534324195 28.036124102369286 L34.011038082599164 27.950341607981994 L33.96442116159062 27.937803459167917 L33.94657357774152 27.93679541613858 L33.93247238868432 27.93917899898235 L33.9221754453039 27.944885263699355 L33.88836718956726 27.985611976604353 L33.66765327507909 28.2505154457234 L33.44510085392743 28.5138762245792 L33.410863613302645 28.554242976422778 L33.40703208502215 28.56537436856553 L33.407133359940374 28.57967523369289 L33.41122528894219 28.597076627804974 L33.4316678984843 28.640808106342856 L33.551913003499294 28.82875028766449 L33.70014666773226 29.069275187182324 L33.85214980702451 29.327896911222094 L34.007868957918696 29.60603265478051 L34.16615099840693 29.903158672084423 L34.32648539610644 30.219930063649905 L34.452194573972356 30.4802592917279 A46 46 0 0 1 33.91452019714118 31.077407183539595 L33.64247689263233 30.97959846785784 L33.310681299693705 30.853254025532486 L32.998637991346286 30.726897196608988 L32.70574882094859 30.60110419337053 L32.43265519921107 30.476967074561188 L32.17795328313253 30.354687147975035 L31.978471632702213 30.254746065623486 L31.932842885218847 30.23898662708339 L31.915109094714087 30.23673605508204 L31.90087598511065 30.238130182413574 L31.890206075661876 30.243104268495962 L31.853639223257577 30.28137342847161 L31.61498422488372 30.53023538167293 L31.37460281098905 30.777430154785144 L31.337633128296563 30.815310306073343 L31.333034446762642 30.8261473088024 L31.33213789705749 30.840420402322245 L31.335005998434426 30.85806484605084 L31.352348257072702 30.903115801260725 L31.459190267218606 31.09898803938544 L31.590284672857674 31.349267290043848 L31.72387700063962 31.617862227557204 L31.85981505881581 31.906182865284173 L31.99698506898388 32.21362629554492 L32.134832044890345 32.54081041012483 L32.24207535255386 32.80927451825253 A46 46 0 0 1 31.664055792244692 33.367461519262 L31.399497962660178 33.250914279067565 L31.07732394988375 33.101732714886424 L30.77485497017142 32.95391664400175 L30.49145413939985 32.80799915047206 L30.227685127668142 32.66511437539061 L29.982133469144234 32.52536520903834 L29.79010928347547 32.411752441629694 L29.74569100818842 32.39284849176402 L29.728157408272754 32.38936635535122 L29.713861720402356 32.38976423512229 L29.70287082761153 32.39398190932266 L29.66372352856879 32.42960707286837 L29.408290149471817 32.66121507973148 L29.151250856919578 32.89103953901344 L29.111728844737282 32.926248541456886 L29.106385414264118 32.936738357984275 L29.104495407835618 32.950914142819705 L29.106125708486065 32.968715674208575 L29.120283126479674 33.01486662236518 L29.21320151822277 33.217714647437845 L29.326517986501234 33.47652891388561 L29.441048654380573 33.753788497336046 L29.556543343283778 34.05088936006646 L29.67193304463043 34.36715236979592 L29.786621022133566 34.70315519927245 L29.87487598097979 34.978446257300966 A46 46 0 0 1 29.259327290388153 35.494952936548074 L29.00354383488045 35.36023497827989 L28.692561001671645 35.18894308982797 L28.40113994905948 35.02038792202105 L28.128608158274208 34.85505683356103 L27.8754488126595 34.69412052246893 L27.640243714687784 34.53758296024149 L27.456612516310948 34.410852017758245 L27.41362111459251 34.38889565471051 L27.396373127202256 34.38419891850485 L27.382084508219208 34.38359861228521 L27.3708261786112 34.38703932651882 L27.329289154635884 34.41984693141882 L27.05832184056268 34.63307262101544 L26.785876938948686 34.84440708480339 L26.743995144547196 34.87677340368137 L26.737932997790928 34.88686492867542 L26.735058742560422 34.900874341827645 L26.735443299823494 34.918746233605276 L26.746346903655066 34.96577233192828 L26.824888987930912 35.17460788876094 L26.919875452405847 35.44069625390784 L27.014786478481252 35.72526970247484 L27.10927511959662 36.02970334466993 L27.202322345095826 36.35324513227533 L27.293292575897635 36.69642970463818 L27.362129216638426 36.977206522204966 A46 46 0 0 1 26.712050287110163 37.44951651106744 L26.466287356963242 37.2972841670764 L26.168010780425565 37.10471647121605 L25.889057428988355 36.91624339032133 L25.628722425679285 36.73230418337493 L25.38740611306592 36.55410040180257 L25.16369347124099 36.38153707896801 L24.989349892896023 36.242305381823016 L24.94799481453389 36.21740357478694 L24.93111647012985 36.21151512081509 L24.91690453274955 36.209919553236304 L24.905433615774527 36.212566544689274 L24.861709231072158 36.242396755590285 L24.576528107539346 36.43620131379407 L24.2900049210382 36.62801618182372 L24.245967388309893 36.65738213168411 L24.239216059440157 36.66702620024944 L24.235371558490208 36.68080098926582 L24.234508498841567 36.69865617137194 L24.242105167249264 36.746328313437346 L24.30588829491829 36.9601339761892 L24.382081991082778 37.23220008426733 L24.45691097837564 37.522700984714696 L24.52993323254162 37.83298423627127 L24.600184665463825 38.162228538685724 L24.666993951744132 38.5109228931951 L24.716076909185237 38.79581755386856 A46 46 0 0 1 24.034634859919247 39.221629805557164 L23.80008978742478 39.052624736520826 L23.515972641056475 38.83971940370944 L23.250846023482126 38.63224663163179 L23.003976133616597 38.43059543952575 L22.775678522822602 38.235992378383976 L22.564548242647902 38.048244006105136 L22.400341668723552 37.89718987713135 L22.360824391502497 37.869463945207706 L22.344397919682006 37.862412461425514 L22.330331903034793 37.85982940593243 L22.318704283847204 37.86166977872847 L22.27300555922489 37.88837726584152 L21.97500000000002 38.06181649632607 L21.675794440775142 38.233177265841526 L21.629815716152834 38.259399778728465 L21.62240809696524 38.26854940593243 L21.61761208031803 38.28202246142552 L21.615505608497536 38.29977394520771 L21.61975833127649 38.347859877131356 L21.668471757352144 38.565594006105144 L21.72550147717744 38.84231237838397 L21.779883866383443 39.13732543952576 L21.831083976517917 39.451946631631785 L21.87819735894357 39.78528940370944 L21.920520212575262 40.13779473652083 L21.949610359481834 40.42541926215167 A46 46 0 0 1 21.240125107643856 40.80265926217864 L21.017940572818645 40.61770484380504 L20.749367046797456 40.385499127422904 L20.499358833316357 40.16003745065279 L20.267156782182518 39.94165669772515 L20.052990116219284 39.7316024435664 L19.85547080319709 39.529583713040644 L19.70220123161553 39.36744307277052 L19.664714279737918 39.33702809391263 L19.6488197086205 39.32884793444027 L19.634968140925565 39.32528997541961 L19.62324046811729 39.32631476344744 L19.57579004316777 39.349769410579945 L19.26641190137997 39.50199833484839 L18.95598166883987 39.652070153405695 L18.908285756048155 39.675021475872285 L18.900257935718777 39.68363208565087 L18.894533769085314 39.6967377682486 L18.89119414761193 39.71429907026225 L18.892082205924236 39.76256452221738 L18.925488603491342 39.9831663386233 L18.96307650391506 40.263188831008705 L18.996747349500495 40.56127677886565 L19.025875873813504 40.87870310869881 L19.04962167407925 41.2145203379616 L19.067251902373712 41.56911927852725 L19.07620751447415 41.85807239133852 A46 46 0 0 1 18.34213560089393 42.184902264343755 L18.13339406445774 41.98489957596766 L17.88167262200552 41.73452475892374 L17.64800082750302 41.49217260408707 L17.431597880153127 41.258126219414535 L17.23260555748926 41.03364413545049 L17.04965950585805 40.81833926162607 L16.90807365056542 40.645902042960685 L16.87279965669262 40.61294619588824 L16.85751442303104 40.603677213640395 L16.843944787733843 40.59916168511086 L16.832174197347943 40.599365895706235 L16.783203245771876 40.619453434175014 L16.46395978062935 40.749730408210304 L16.143817259662622 40.877782140994626 L16.094636528394243 40.89735045650486 L16.08602761765677 40.905380098832765 L16.079403188601503 40.9180545589669 L16.074846687775356 40.935340122313846 L16.07236575509019 40.98354994987018 L16.090302371537792 41.20594470383352 L16.108265328087395 41.48790707489036 L16.121060589077153 41.787617654944185 L16.127975616326225 42.10630265333311 L16.12823814728009 42.442958271996304 L16.121089857537257 42.79792324992195 L16.10986730398962 43.08679719939348 A46 46 0 0 1 15.354785053241475 43.361624663088534 L15.16050348297719 43.1475480977035 L14.926860485658628 42.88022398093886 L14.710663535628923 42.622162063372826 L14.511113985469718 42.37359029741527 L14.32826547669861 42.13577403779414 L14.160783981232246 41.90823196437398 L14.03157163428337 41.72633826410933 L13.99868244976781 41.69100210639656 L13.984081021684002 41.680689458923034 L13.970859428683692 41.675238360085714 L13.959103265853347 41.67462099835514 L13.908850369204268 41.69124356369196 L13.58129690277895 41.798933891172 L13.253001795567132 41.90434168301292 L13.202575849401203 41.92043165670063 L13.193427790003383 41.927841211967575 L13.185935372078784 41.94002270094237 L13.180184190713874 41.95694831209553 L13.174346353885898 42.004867641819246 L13.17672580382165 42.227971848453734 L13.174976302778456 42.51050040585297 L13.16683364194717 42.81037345828448 L13.151501482814647 43.12876452395112 L13.12827946543221 43.46461837968109 L13.096387483401164 43.81822004127522 L13.065041439358257 44.1056074625627 A46 46 0 0 1 12.292627536267219 44.32709358517001 L12.113752452456055 44.099986102283694 L11.89932618546837 43.81701506202388 L11.70165736971997 43.54450063345059 L11.519933402101177 43.28261450286539 L11.354119526777689 43.032622684498854 L11.202918540486909 42.79395197359219 L11.086709211447744 42.60348795955209 L11.056365069090365 42.565943645407394 L11.042518583274227 42.55463757489004 L11.029709446842872 42.548277462950544 L11.018024986411667 42.5468415366183 L10.966734971750645 42.559918145355745 L10.632467311605403 42.644497169830046 L10.29761903891072 42.72674748456128 L10.246193547988163 42.73928072769202 L10.23655090835582 42.74603409728953 L10.228227003868884 42.757663268115195 L10.221309161142717 42.774146467198385 L10.212142861526136 42.82154184093189 L10.198953552509135 43.04426855896917 L10.177500117266364 43.32598685197883 L10.148459204839106 43.62456142541969 L10.110954556063101 43.94110738909668 L10.064361125678781 44.274523235668234 L10.007880825890208 44.62503886917948 L9.95656400612771 44.90953963965449 A46 46 0 0 1 9.170581573586869 45.0766053630484 L9.007984437656692 44.83757340748867 L8.813819564218596 44.540334050197664 L8.635641905352227 44.254694773520065 L8.472628861177254 43.98077016121075 L8.324657447834412 43.719820719108796 L8.190473606725751 43.47118415042807 L8.087833455766054 43.27307774414354 L8.060182189178244 43.23350818569149 L8.047158104316823 43.221263774169394 L8.034823829279548 43.21402563495377 L8.023267996764188 43.21177813970861 L7.971190743886999 43.22124508392337 L7.631837408461591 43.28230074488655 L7.2920673174097805 43.340992867242484 L7.239892821553098 43.349908319115556 L7.229802579657248 43.35597260130582 L7.220687741833918 43.36699279783104 L7.212636940780877 43.38295328035521 L7.200186835666031 43.42959379260186 L7.17149302468402 43.650857919860044 L7.130440174221687 43.93039344527482 L7.08064249460462 44.226214914415856 L7.021148075064012 44.539373595987236 L6.951410230187088 44.86872706491071 L6.870616778984177 45.214448993406315 L6.799579193889622 45.49467705391301 A46 46 0 0 1 6.003857459303641 45.606508450682554 L5.858330428156497 45.35671656210947 L5.685372900013993 45.04665700805762 L5.5275544616732954 44.749284489119326 L5.384046524107353 44.464655928262246 L5.254638474596924 44.19402018187625 L5.138125508856156 43.936629087791225 L5.04955458847405 43.73184544376009 L5.024730911847127 43.69044341991195 L5.012592679972693 43.677320320927244 L5.000793357677642 43.669239417922164 L4.989422451932555 43.66619130333502 L4.936811675980427 43.67200246102648 L4.594025960613368 43.709237301435614 L4.2509893769344655 43.74408528929585 L4.198320065042909 43.74933951472591 L4.1878313795278 43.75468516493567 L4.177970014941732 43.76504269787072 L4.168825478255283 43.78040270596936 L4.15315222330281 43.82606112884176 L4.109093703718603 44.04478468873426 L4.048641443397542 44.32077557757314 L3.9783296058801128 44.61240272995255 L3.8971352664065484 44.92064845180031 L3.8045927628072373 45.24433496608161 L3.6998797777629187 45.58357886707779 L3.6094675153102154 45.8581689746738 A46 46 0 0 1 2.807883154984328 45.914221213495175 L2.680135221687638 45.65488635288089 L2.529227670532208 45.33351718104844 L2.392537328284926 45.02586018886995 L2.269233653574464 44.73191436120284 L2.1590194309056137 44.452910820684984 L2.060744979989982 44.18801918473317 L1.9866747988064524 43.97755598828438 L1.964799650597675 43.93452320553861 L1.953606407955791 43.920585353510425 L1.9423995235151208 43.911701056063045 L1.9312689424500966 43.90786717224179 L1.8783809578350525 43.90999423203381 L1.5338328800749113 43.92322684748926 L1.1892010435226839 43.93406092495985 L1.1362935151894866 43.935628325888764 L1.125457485876631 43.94022930064754 L1.1148976381048255 43.949873709133094 L1.104703917048501 43.96455841039072 L1.0858838707810605 44.00901230064221 L1.0266752912733241 44.22412969397124 L0.9471181384291775 44.4952313463663 L0.856634695216053 44.781243403811956 L0.7541360064698202 45.083074423764025 L0.6392397019233156 45.39951701524242 L0.5111173341750141 45.730630126554196 L0.4017708738186234 45.99824450583703 A46 46 0 0 1 -0.40177087381860077 45.99824450583703 L-0.5111173341749917 45.730630126554196 L-0.6392397019232932 45.39951701524241 L-0.754136006469798 45.083074423764025 L-0.8566346952160308 44.781243403811956 L-0.9471181384291555 44.4952313463663 L-1.0266752912733024 44.22412969397124 L-1.0858838707810388 44.00901230064221 L-1.1047039170484791 43.96455841039072 L-1.1148976381048037 43.949873709133094 L-1.1254574858766095 43.94022930064754 L-1.1362935151894649 43.935628325888764 L-1.189201043522662 43.93406092495985 L-1.5338328800748897 43.92322684748926 L-1.8783809578350308 43.90999423203381 L-1.9312689424500749 43.90786717224179 L-1.9423995235150993 43.911701056063045 L-1.9536064079557693 43.920585353510425 L-1.9647996505976533 43.93452320553861 L-1.9866747988064306 43.97755598828438 L-2.0607449799899604 44.18801918473317 L-2.159019430905592 44.452910820684984 L-2.269233653574442 44.73191436120284 L-2.3925373282849036 45.02586018886995 L-2.529227670532186 45.33351718104845 L-2.6801352216876158 45.65488635288089 L-2.8078831549843057 45.914221213495175 A46 46 0 0 1 -3.609467515310193 45.85816897467381 L-3.6998797777628964 45.5835788670778 L-3.8045927628072147 45.24433496608161 L-3.897135266406527 44.92064845180032 L-3.9783296058800914 44.61240272995256 L-4.0486414433975195 44.320775577573144 L-4.109093703718582 44.04478468873427 L-4.153152223302789 43.826061128841765 L-4.168825478255262 43.780402705969365 L-4.177970014941709 43.765042697870726 L-4.187831379527779 43.75468516493568 L-4.198320065042887 43.74933951472592 L-4.250989376934444 43.74408528929586 L-4.5940259606133464 43.70923730143562 L-4.9368116759804055 43.67200246102649 L-4.989422451932533 43.666191303335026 L-5.000793357677621 43.66923941792217 L-5.0125926799726725 43.67732032092725 L-5.024730911847105 43.69044341991196 L-5.049554588474028 43.7318454437601 L-5.138125508856135 43.93662908779123 L-5.254638474596902 44.194020181876255 L-5.384046524107331 44.46465592826225 L-5.527554461673274 44.74928448911933 L-5.685372900013971 45.04665700805762 L-5.858330428156474 45.356716562109476 L-6.003857459303619 45.60650845068256 A46 46 0 0 1 -6.799579193889601 45.49467705391301 L-6.8706167789841555 45.214448993406315 L-6.951410230187067 44.868727064910715 L-7.021148075063991 44.53937359598724 L-7.080642494604597 44.22621491441585 L-7.130440174221666 43.930393445274824 L-7.171493024684 43.65085791986005 L-7.20018683566601 43.42959379260186 L-7.212636940780856 43.38295328035522 L-7.220687741833897 43.366992797831045 L-7.229802579657227 43.35597260130582 L-7.239892821553077 43.34990831911556 L-7.29206731740976 43.34099286724249 L-7.63183740846157 43.28230074488655 L-7.971190743886979 43.22124508392338 L-8.023267996764169 43.21177813970862 L-8.034823829279526 43.21402563495377 L-8.047158104316802 43.2212637741694 L-8.060182189178223 43.2335081856915 L-8.087833455766033 43.27307774414354 L-8.190473606725732 43.47118415042808 L-8.32465744783439 43.7198207191088 L-8.472628861177233 43.980770161210756 L-8.635641905352205 44.25469477352007 L-8.813819564218575 44.54033405019767 L-9.00798443765667 44.83757340748867 L-9.170581573586848 45.076605363048415 A46 46 0 0 1 -9.956564006127687 44.9095396396545 L-10.007880825890185 44.625038869179484 L-10.064361125678758 44.274523235668234 L-10.110954556063078 43.941107389096686 L-10.148459204839083 43.6245614254197 L-10.177500117266343 43.32598685197884 L-10.198953552509112 43.04426855896917 L-10.212142861526113 42.8215418409319 L-10.221309161142695 42.77414646719839 L-10.228227003868861 42.7576632681152 L-10.236550908355797 42.74603409728954 L-10.246193547988142 42.73928072769202 L-10.297619038910698 42.72674748456129 L-10.632467311605382 42.64449716983005 L-10.966734971750624 42.55991814535575 L-11.018024986411646 42.5468415366183 L-11.02970944684285 42.54827746295055 L-11.042518583274203 42.554637574890045 L-11.056365069090344 42.5659436454074 L-11.08670921144772 42.6034879595521 L-11.202918540486886 42.79395197359219 L-11.354119526777668 43.03262268449886 L-11.519933402101154 43.2826145028654 L-11.701657369719946 43.544500633450596 L-11.899326185468347 43.81701506202388 L-12.113752452456032 44.0999861022837 L-12.292627536267196 44.32709358517002 A46 46 0 0 1 -13.065041439358236 44.10560746256271 L-13.096387483401141 43.818220041275225 L-13.128279465432188 43.46461837968109 L-13.151501482814624 43.12876452395112 L-13.166833641947147 42.81037345828448 L-13.174976302778434 42.51050040585298 L-13.176725803821629 42.227971848453734 L-13.174346353885873 42.00486764181925 L-13.180184190713852 41.956948312095534 L-13.185935372078763 41.94002270094238 L-13.193427790003359 41.92784121196758 L-13.202575849401182 41.920431656700636 L-13.25300179556711 41.90434168301293 L-13.581296902778929 41.798933891172005 L-13.908850369204247 41.69124356369197 L-13.959103265853326 41.674620998355145 L-13.97085942868367 41.67523836008572 L-13.98408102168398 41.68068945892304 L-13.998682449767788 41.69100210639657 L-14.031571634283349 41.72633826410934 L-14.160783981232225 41.90823196437398 L-14.328265476698588 42.13577403779415 L-14.511113985469695 42.37359029741527 L-14.7106635356289 42.622162063372826 L-14.926860485658606 42.88022398093886 L-15.160503482977166 43.147548097703506 L-15.35478505324145 43.36162466308854 A46 46 0 0 1 -16.109867303989603 43.08679719939349 L-16.121089857537235 42.79792324992195 L-16.128238147280072 42.44295827199631 L-16.127975616326204 42.10630265333311 L-16.121060589077132 41.78761765494419 L-16.108265328087377 41.487907074890366 L-16.09030237153777 41.205944703833524 L-16.072365755090168 40.98354994987019 L-16.074846687775334 40.93534012231385 L-16.079403188601486 40.91805455896691 L-16.08602761765675 40.90538009883277 L-16.094636528394222 40.89735045650486 L-16.1438172596626 40.87778214099463 L-16.46395978062933 40.74973040821031 L-16.783203245771855 40.61945343417502 L-16.83217419734792 40.599365895706235 L-16.84394478773382 40.599161685110865 L-16.857514423031024 40.6036772136404 L-16.8727996566926 40.61294619588825 L-16.9080736505654 40.64590204296069 L-17.049659505858028 40.81833926162608 L-17.232605557489244 41.033644135450494 L-17.431597880153106 41.25812621941454 L-17.648000827502997 41.49217260408707 L-17.881672622005503 41.73452475892375 L-18.13339406445772 41.98489957596766 L-18.34213560089391 42.18490226434376 A46 46 0 0 1 -19.076207514474127 41.858072391338524 L-19.06725190237369 41.56911927852727 L-19.04962167407923 41.21452033796161 L-19.025875873813483 40.87870310869881 L-18.996747349500477 40.56127677886566 L-18.96307650391504 40.26318883100872 L-18.92548860349132 39.98316633862331 L-18.89208220592422 39.762564522217396 L-18.89119414761191 39.71429907026226 L-18.894533769085292 39.69673776824861 L-18.900257935718756 39.68363208565088 L-18.908285756048134 39.67502147587229 L-18.95598166883985 39.6520701534057 L-19.26641190137995 39.501998334848395 L-19.575790043167753 39.34976941057995 L-19.62324046811727 39.32631476344745 L-19.634968140925544 39.325289975419615 L-19.64881970862048 39.328847934440276 L-19.664714279737897 39.337028093912636 L-19.70220123161551 39.367443072770534 L-19.85547080319707 39.52958371304066 L-20.052990116219263 39.731602443566416 L-20.2671567821825 39.941656697725165 L-20.499358833316336 40.1600374506528 L-20.749367046797435 40.38549912742291 L-21.017940572818624 40.61770484380506 L-21.240125107643834 40.80265926217865 A46 46 0 0 1 -21.949610359481813 40.42541926215168 L-21.92052021257524 40.137794736520846 L-21.87819735894355 39.785289403709456 L-21.831083976517895 39.45194663163179 L-21.77988386638342 39.13732543952576 L-21.725501477177417 38.84231237838398 L-21.668471757352123 38.56559400610515 L-21.619758331276465 38.34785987713136 L-21.615505608497518 38.29977394520772 L-21.61761208031801 38.28202246142553 L-21.622408096965223 38.26854940593245 L-21.629815716152816 38.25939977872847 L-21.675794440775125 38.23317726584154 L-21.975 38.06181649632608 L-22.273005559224874 37.888377265841534 L-22.318704283847186 37.861669778728476 L-22.330331903034775 37.859829405932445 L-22.344397919681988 37.86241246142552 L-22.36082439150248 37.86946394520771 L-22.400341668723534 37.89718987713136 L-22.56454824264788 38.04824400610516 L-22.77567852282258 38.23599237838398 L-23.003976133616575 38.43059543952577 L-23.250846023482104 38.632246631631794 L-23.515972641056454 38.83971940370945 L-23.80008978742476 39.05262473652084 L-24.034634859919226 39.22162980555717 A46 46 0 0 1 -24.716076909185215 38.795817553868574 L-24.66699395174411 38.510922893195115 L-24.600184665463807 38.16222853868573 L-24.5299332325416 37.83298423627128 L-24.456910978375618 37.52270098471471 L-24.38208199108276 37.23220008426735 L-24.30588829491827 36.9601339761892 L-24.242105167249246 36.74632831343735 L-24.23450849884155 36.69865617137195 L-24.23537155849019 36.680800989265826 L-24.23921605944014 36.667026200249445 L-24.245967388309875 36.657382131684116 L-24.290004921038182 36.62801618182373 L-24.57652810753933 36.43620131379408 L-24.86170923107214 36.2423967555903 L-24.90543361577451 36.21256654468928 L-24.916904532749534 36.20991955323631 L-24.931116470129833 36.2115151208151 L-24.94799481453387 36.21740357478696 L-24.989349892896005 36.24230538182302 L-25.16369347124097 36.38153707896802 L-25.387406113065904 36.554100401802586 L-25.628722425679264 36.73230418337494 L-25.889057428988338 36.916243390321334 L-26.168010780425547 37.10471647121606 L-26.46628735696322 37.29728416707641 L-26.71205028711014 37.44951651106746 A46 46 0 0 1 -27.362129216638404 36.97720652220498 L-27.293292575897613 36.69642970463819 L-27.202322345095805 36.35324513227535 L-27.1092751195966 36.02970334466995 L-27.01478647848123 35.725269702474854 L-26.919875452405822 35.44069625390785 L-26.82488898793089 35.17460788876095 L-26.746346903655045 34.96577233192829 L-26.735443299823473 34.91874623360529 L-26.7350587425604 34.90087434182766 L-26.73793299779091 34.886864928675436 L-26.743995144547174 34.87677340368138 L-26.785876938948668 34.84440708480341 L-27.05832184056266 34.63307262101545 L-27.329289154635866 34.41984693141883 L-27.37082617861118 34.38703932651883 L-27.38208450821919 34.383598612285226 L-27.396373127202235 34.384198918504865 L-27.413621114592488 34.388895654710524 L-27.456612516310926 34.41085201775826 L-27.640243714687763 34.5375829602415 L-27.87544881265948 34.69412052246894 L-28.128608158274186 34.855056833561044 L-28.40113994905946 35.020387922021065 L-28.692561001671624 35.18894308982799 L-29.00354383488043 35.360234978279905 L-29.259327290388132 35.49495293654809 A46 46 0 0 1 -29.87487598097977 34.97844625730098 L-29.786621022133552 34.703155199272466 L-29.671933044630414 34.36715236979593 L-29.55654334328376 34.05088936006648 L-29.44104865438056 33.75378849733607 L-29.32651798650122 33.47652891388562 L-29.213201518222753 33.21771464743786 L-29.120283126479656 33.014866622365204 L-29.10612570848605 32.96871567420859 L-29.1044954078356 32.95091414281972 L-29.106385414264103 32.93673835798429 L-29.111728844737268 32.9262485414569 L-29.15125085691956 32.891039539013455 L-29.408290149471803 32.66121507973149 L-29.663723528568774 32.429607072868386 L-29.702870827611516 32.393981909322676 L-29.713861720402342 32.38976423512231 L-29.728157408272736 32.389366355351235 L-29.745691008188405 32.392848491764035 L-29.790109283475452 32.411752441629716 L-29.982133469144216 32.525365209038355 L-30.227685127668128 32.66511437539062 L-30.491454139399835 32.80799915047208 L-30.7748549701714 32.953916644001765 L-31.077323949883734 33.10173271488644 L-31.399497962660163 33.25091427906758 L-31.664055792244678 33.367461519262015 A46 46 0 0 1 -32.24207535255384 32.80927451825254 L-32.13483204489033 32.54081041012485 L-31.996985068983864 32.213626295544934 L-31.859815058815794 31.90618286528419 L-31.7238770006396 31.617862227557218 L-31.59028467285766 31.349267290043862 L-31.45919026721859 31.098988039385453 L-31.352348257072688 30.90311580126074 L-31.335005998434408 30.858064846050855 L-31.332137897057475 30.84042040232226 L-31.33303444676263 30.826147308802415 L-31.33763312829655 30.815310306073357 L-31.374602810989035 30.777430154785158 L-31.614984224883706 30.530235381672945 L-31.853639223257563 30.281373428471625 L-31.89020607566186 30.243104268495976 L-31.900875985110634 30.238130182413588 L-31.915109094714072 30.236736055082055 L-31.93284288521883 30.238986627083403 L-31.9784716327022 30.2547460656235 L-32.17795328313252 30.35468714797505 L-32.432655199211055 30.476967074561202 L-32.70574882094858 30.601104193370546 L-32.99863799134627 30.726897196609006 L-33.31068129969369 30.8532540255325 L-33.64247689263232 30.97959846785786 L-33.91452019714117 31.07740718353961 A46 46 0 0 1 -34.45219457397234 30.480259291727915 L-34.32648539610643 30.21993006364992 L-34.166150998406906 29.90315867208444 L-34.00786895791868 29.606032654780524 L-33.852149807024496 29.32789691122211 L-33.70014666773225 29.06927518718234 L-33.55191300349928 28.828750287664505 L-33.43166789848428 28.64080810634287 L-33.41122528894218 28.597076627804988 L-33.40713335994036 28.579675233692903 L-33.40703208502214 28.565374368565546 L-33.41086361330263 28.554242976422792 L-33.445100853927414 28.513876224579214 L-33.667653275079076 28.250515445723416 L-33.88836718956725 27.985611976604368 L-33.922175445303886 27.94488526369937 L-33.9324723886843 27.939178998982367 L-33.9465735777415 27.936795416138594 L-33.96442116159061 27.93780345916793 L-34.01103808259914 27.950341607982008 L-34.21700534324194 28.0361241023693 L-34.479616634742534 28.14033905367854 L-34.760704381812026 28.245123732651155 L-35.061654965238795 28.350179394731274 L-35.38175235858951 28.454461383924414 L-35.721553056913514 28.557353166971076 L-35.999756468712825 28.635946843909043 A46 46 0 0 1 -36.49446616654894 28.00274730579894 L-36.35090356095893 27.751821255601644 L-36.16886287453521 27.447005865428544 L-35.99023993791763 27.16164482917077 L-35.81549834235577 26.89504902916541 L-35.64582493556854 26.647660497642185 L-35.48117419225342 26.4180617623979 L-35.34811181443397 26.238965273294866 L-35.32466844832685 26.196766326796546 L-35.31937262716693 26.179692760143908 L-35.31827402102653 26.165433795786413 L-35.321319729232975 26.15406224525356 L-35.35265772739524 26.11140555561193 L-35.55629690277893 25.833161838254206 L-35.75799443737613 25.55350743629097 L-35.78887938602154 25.510521586908066 L-35.798753197660496 25.504110943904557 L-35.812653766595815 25.500749518124564 L-35.8305281921548 25.50051012109758 L-35.87790617373526 25.50976589558495 L-36.089355592800445 25.58097187831814 L-36.35859684390849 25.66661412958335 L-36.64630928506108 25.751535868296198 L-36.953855080525905 25.835342368592478 L-37.28044707655559 25.917041466686307 L-37.62659740541938 25.99597931202992 L-37.90960554545179 26.05497504973026 A46 46 0 0 1 -38.35894038837303 25.388808749822427 L-38.198223777642504 25.14850836399939 L-37.995363686420156 24.85713400515967 L-37.7972700866653 24.584928200232277 L-37.60435736992438 24.331171171719493 L-37.417840327424535 24.096221084770985 L-37.23757466689806 23.878667095759177 L-37.092343282803505 23.70928883896693 L-37.066013373854524 23.668828013533698 L-37.05953946124485 23.652165455041 L-37.05744887618099 23.63801785969442 L-37.05969392592913 23.626461551822597 L-37.08798000605192 23.58172274348702 L-37.271713826074915 23.289951663049365 L-37.453412330667135 22.996908776377552 L-37.48122350385608 22.951873213254007 L-37.49062607953578 22.944789423972306 L-37.50425830617465 22.940466531784608 L-37.522072491038905 22.93898086101955 L-37.56998071242746 22.944909167977297 L-37.78588212960016 23.00119173066612 L-38.06044162400429 23.06784404144786 L-38.35337705314745 23.132489109726233 L-38.66601972844922 23.194638151393434 L-38.997515203782136 23.253356328594403 L-39.34832875357839 23.307955658987254 L-39.634762834633534 23.347066036146128 A46 46 0 0 1 -40.03653370845216 22.65117846969091 L-39.85944608775341 22.422674467566953 L-39.63675490570546 22.14616068664802 L-39.42015573491905 21.8884362723706 L-39.210011748363506 21.648754294085734 L-39.00755976243347 21.427387304918454 L-38.812557420873496 21.222937963305135 L-38.65586458320853 21.064103132664926 L-38.626776408087416 21.02557754937118 L-38.619155944279484 21.009407177348496 L-38.616083565412424 20.995439876675235 L-38.61751701904558 20.98375511263476 L-38.64261337418983 20.937152148582317 L-38.80554670614984 20.633275184439906 L-38.96636096388698 20.3282714885468 L-38.99096286837924 20.2814056204192 L-38.99984839969612 20.273683196368637 L-39.013145869200656 20.26841989846943 L-39.03081302445221 20.26569519200493 L-39.079018081609966 20.26826714931746 L-39.298319646888054 20.309352088974002 L-39.57685975833016 20.356689735914003 L-39.873591023498854 20.400743189483357 L-40.18980741495024 20.440931988637676 L-40.52459135695237 20.476383175888788 L-40.878358999330146 20.506377988881507 L-41.16682354335736 20.525412463672758 A46 46 0 0 1 -41.51907306076201 19.80319392494356 L-41.32647718318231 19.587599555047884 L-41.085039839362835 19.32729349939531 L-40.85099034693246 19.08530608320785 L-40.624638890941206 18.86086686165636 L-40.407238287306036 18.6541614479898 L-40.19844929651906 18.463812810416133 L-40.03105839703809 18.316295233256824 L-39.99935367041009 18.27989258487179 L-39.99062378153756 18.264293179746172 L-39.98658457718831 18.25057422103113 L-39.987199451064456 18.23881792781786 L-40.008983814310604 18.190577853004896 L-40.15032286339231 17.87607546318142 L-40.28946940337567 17.560596905414556 L-40.31074218116554 17.512129058081474 L-40.31906737870419 17.503805622135765 L-40.33196530713963 17.497627560783346 L-40.349399360173976 17.493677093115416 L-40.39766640290802 17.49288017046524 L-40.61929970110958 17.51856732539333 L-40.90046341016548 17.546359684234076 L-41.19954486646312 17.56960689909685 L-41.517794399590926 17.587639659948568 L-41.85423577454921 17.599651142629085 L-42.20923398911544 17.60489530650784 L-42.49832362585259 17.603761144883624 A46 46 0 0 1 -42.79933566260246 16.858730210003973 L-42.5921698358977 16.657095826435246 L-42.33316258877661 16.4142656809863 L-42.08280304030282 16.189194201255972 L-41.841346876416665 15.981091181764702 L-41.61005680896423 15.790054391596291 L-41.388498367925976 15.614733817490759 L-41.21122491826519 15.479252184619853 L-41.1770581023715 15.445149821187286 L-41.16726131957543 15.430197381692453 L-41.16227496834156 15.416793602323466 L-41.162068266857 15.405023055416196 L-41.180434506977036 15.355380890638127 L-41.299490683540675 15.031785299163138 L-41.41629159781442 14.707368859344164 L-41.434131610066835 14.657535163285837 L-41.4418559143017 14.648651266388232 L-41.454291464257196 14.641588540476503 L-41.47140747812043 14.636431557886517 L-41.51950135425035 14.632269637800682 L-41.74238661022504 14.642433862763578 L-42.02480411556667 14.650545531926467 L-42.32477866820176 14.652873249988653 L-42.64351086327092 14.648662118739553 L-42.97997056262552 14.637175378113238 L-43.33446983376313 14.617643343838756 L-43.62277614755922 14.5963460713205 A46 46 0 0 1 -43.87108420326888 13.83213245611492 L-43.650357718522514 13.645440401321665 L-43.37504242537247 13.421269210135776 L-43.10959254740937 13.214210192487718 L-42.854208025787685 13.023457232049193 L-42.610155316477424 12.849019777417677 L-42.37690683564165 12.68958141099416 L-42.190614494228335 12.566795775308437 L-42.154152046361546 12.535159840115021 L-42.14333609858295 12.520927213033183 L-42.137426893466454 12.507903914875989 L-42.13639962365003 12.49617645919608 L-42.15125826216828 12.445374056089694 L-42.24745153648911 12.114261788157144 L-42.34133778273968 11.78248799057063 L-42.35565811470821 11.731531230544986 L-42.3627438936055 11.722130154148171 L-42.374656480331694 11.714217172567828 L-42.39137106752477 11.707878799356585 L-42.439057468520424 11.700372158291392 L-42.66210880770549 11.69496393420678 L-42.94440419963535 11.683355394455035 L-43.24381040274078 11.664752275308217 L-43.56147242853576 11.63831776816644 L-43.89631125445223 11.603388766478982 L-44.248584497346386 11.559175692158895 L-44.53470288882106 11.517819066917514 A46 46 0 0 1 -44.729097231602935 10.738145943300731 L-44.49588544606133 10.567305762207686 L-44.20560341531595 10.3628856647947 L-43.92635645298605 10.174847879949397 L-43.658287781347 10.002374307812447 L-43.402661430446585 9.845386030462402 L-43.15885927296587 9.702606639415427 L-42.964455637361354 9.593115200189578 L-42.925875198902276 9.564099820331544 L-42.914092780351524 9.550656345591182 L-42.907289510405725 9.53807697684531 L-42.90544667701272 9.526449747377995 L-42.9167253241359 9.474734610144584 L-42.989587052250755 9.13771881144055 L-43.06010122612383 8.80020402467855 L-43.070832110590615 8.74837245689828 L-43.0772448429478 8.738500002101468 L-43.088576429519605 8.729775316103357 L-43.10480815825386 8.722286432188016 L-43.15185476076303 8.71147164174417 L-43.373985499455 8.690517316936157 L-43.654783463199834 8.65924512390856 L-43.95216263985027 8.619801800079243 L-44.26720687891268 8.571272703306395 L-44.59879353028904 8.51307161114297 L-44.94712450511074 8.444392898431078 L-45.22966103422125 8.383178405787595 A46 46 0 0 1 -45.36919459437777 7.591844262845437 L-45.12463369241769 7.43768827164209 L-44.820799148951714 7.254015182168363 L-44.52911556538569 7.085914731312091 L-44.24966874735135 6.932560821383189 L-43.98371414074688 6.793786552421455 L-43.730546086225566 6.668361743592067 L-43.52897827140112 6.572697932111962 L-43.48846780236784 6.5464444676033615 L-43.47577631580375 6.533855640462078 L-43.46811212587597 6.5217814865475825 L-43.46546270700543 6.5103111299860625 L-43.47310641429849 6.457935209575839 L-43.522281621192015 6.116657787194899 L-43.569080184720555 5.775046349371652 L-43.576169341895124 5.7225924920248925 L-43.58187778552476 5.712296756435474 L-43.59257316559145 5.702802871812778 L-43.6082429565161 5.69419996228299 L-43.65442055422047 5.680129711032435 L-43.87454849378894 5.643731372865165 L-44.1524810098951 5.592947881542678 L-44.44638435863436 5.532856516939728 L-44.75727594709962 5.46246925941716 L-45.08399496710134 5.38127962664843 L-45.426686640355356 5.288469871329511 L-45.70426481753234 5.2076957421388235 A46 46 0 0 1 -45.78825780158427 4.408555880271065 Z" id="SvgjsPath1056">
        </path>
      </g>
    </g>
    <g transform="matrix(1,0,0,1,0,0)" id="SvgjsG1057">
      <g fill="none" stroke-width="0.04" stroke="blue" id="SvgjsG1058">
      </g>
      <g fill="none" stroke-width="0.1" stroke="black" id="SvgjsG1059">
        <path d="M-1.05 45.14986405963406  L1 44.40372507938835 L1 43.560869221125856 L-1.05 42.814730240880145 L-1.05 42.00827140604427 L1 41.26213242579856 L1 40.419276567536066 L-1.05 39.673137587290356 L-1.05 38.866678752454476 L1 38.120539772208765 L1 37.27768391394627 L-1.05 36.53154493370056 L-1.05 35.72508609886468 L1 34.97894711861897 L1 34.13609126035647 L-1.05 33.38995228011076 L-1.05 32.58349344527489 L1 31.837354465029176 L1 30.994498606766687 L-1.05 30.24835962652097 L-1.05 29.4419007916851 L1 28.695761811439382 L1 27.852905953176894 L-1.05 27.106766972931176 L-1.05 26.300308138095307 L1 25.55416915784959 L1 24.7113132995871 L-1.05 23.965174319341383 L-1.05 23.158715484505514 L1 22.412576504259796 L1 21.569720645997307 L-1.05 20.82358166575159 L-1.05 20.01712283091572 L1 19.270983850670003 L1 18.428127992407514 L-1.05 17.681989012161797 L-1.05 16.875530177325928 L1 16.12939119708021 L1 15.28653533881772 L-1.05 14.540396358572005 L-1.05 13.733937523736133 L1 12.987798543490419 L1 12.144942685227926 L-1.05 11.398803704982212 L-1.05 10.59234487014634 L1 9.846205889900626 L1 9.003350031638133 L-1.05 8.257211051392419 L-1.05 7.4507522165565465 L1 6.704613236310832 L1 5.86175737804834 L-1.05 5.115618397802626 L-1.05 4.309159562966753 L1 3.5630205827210393 L1 2.720164724458547 L-1.05 1.9740257442128324 L-1.05 1.1675669093769607 L1 0.42142792913124594 L1 -0.42142792913124594 L-1.05 -1.1675669093769607 L-1.05 -1.9740257442128324 L1 -2.720164724458547 L1 -3.5630205827210393 L-1.05 -4.309159562966753 L-1.05 -5.115618397802626 L1 -5.86175737804834 L1 -6.704613236310832 L-1.05 -7.4507522165565465 L-1.05 -8.257211051392419 L1 -9.003350031638133 L1 -9.846205889900626 L-1.05 -10.59234487014634 L-1.05 -11.398803704982212 L1 -12.144942685227926 L1 -12.987798543490419 L-1.05 -13.733937523736133 L-1.05 -14.540396358572005 L1 -15.28653533881772 L1 -16.12939119708021 L-1.05 -16.875530177325928 L-1.05 -17.681989012161797 L1 -18.428127992407514 L1 -19.270983850670003 L-1.05 -20.01712283091572 L-1.05 -20.82358166575159 L1 -21.569720645997307 L1 -22.412576504259796 L-1.05 -23.158715484505514 L-1.05 -23.965174319341383 L1 -24.7113132995871 L1 -25.55416915784959 L-1.05 -26.300308138095307 L-1.05 -27.106766972931176 L1 -27.852905953176894 L1 -28.695761811439382 L-1.05 -29.4419007916851 L-1.05 -30.24835962652097 L1 -30.994498606766687 L1 -31.837354465029176 L-1.05 -32.58349344527489 L-1.05 -33.38995228011076 L1 -34.13609126035647 L1 -34.97894711861897 L-1.05 -35.72508609886468 L-1.05 -36.53154493370056 L1 -37.27768391394627 L1 -38.120539772208765 L-1.05 -38.866678752454476 L-1.05 -39.673137587290356 L1 -40.419276567536066 L1 -41.26213242579856 L-1.05 -42.00827140604427 L-1.05 -42.814730240880145 L1 -43.560869221125856 L1 -44.40372507938835 L-1.05 -45.14986405963406 L-2.6207963267948964 -45.14986405963406 L-2.6207963267948964 45.14986405963406 Z" id="SvgjsPath1060">
        </path>
      </g>
    </g>
  </g>
</svg>
